<svg width="1402" height="332" viewBox="0 0 1402 332" fill="none" xmlns="http://www.w3.org/2000/svg">
<mask id="mask0_1_52218" style="mask-type:alpha" maskUnits="userSpaceOnUse" x="0" y="0" width="1402" height="332">
<rect width="1402" height="332" rx="30" fill="white"/>
</mask>
<g mask="url(#mask0_1_52218)">
<rect x="-75.8363" y="-42.773" width="1701.46" height="519.386" fill="white"/>
<path fill-rule="evenodd" clip-rule="evenodd" d="M33.2887 -85.8763L48.7342 -69.6978H70.5773V-46.818L86.0227 -30.6396L70.5773 -14.4611V8.41871H48.7341L33.2887 24.5972L17.8433 8.41871H-3.99974V-14.4611L-19.4452 -30.6396L-3.99974 -46.8181V-69.6978H17.8433L33.2887 -85.8763ZM33.3469 -5.19065C46.733 -5.19065 57.5845 -16.5572 57.5845 -30.5785C57.5845 -44.5999 46.733 -55.9664 33.3469 -55.9664C19.9609 -55.9664 9.10941 -44.5999 9.10941 -30.5785C9.10941 -16.5572 19.9609 -5.19065 33.3469 -5.19065Z" fill="#FF3D00" fill-opacity="0.04"/>
<path fill-rule="evenodd" clip-rule="evenodd" d="M173.879 -7.64209L189.324 8.53639H211.167V31.4161L226.613 47.5946L211.167 63.7731V86.6529H189.324L173.879 102.831L158.433 86.6529H136.59V63.7731L121.145 47.5946L136.59 31.4162V8.53639H158.433L173.879 -7.64209ZM173.937 73.0436C187.323 73.0436 198.174 61.677 198.174 47.6557C198.174 33.6344 187.323 22.2678 173.937 22.2678C160.551 22.2678 149.699 33.6344 149.699 47.6557C149.699 61.677 160.551 73.0436 173.937 73.0436Z" fill="#FF3D00" fill-opacity="0.04"/>
<path fill-rule="evenodd" clip-rule="evenodd" d="M332.114 -85.8763L347.56 -69.6978H369.403V-46.818L384.848 -30.6396L369.403 -14.4611V8.41871H347.56L332.114 24.5972L316.669 8.41871H294.826V-14.4611L279.38 -30.6396L294.826 -46.818V-69.6978H316.669L332.114 -85.8763ZM332.173 -5.19065C345.559 -5.19065 356.41 -16.5572 356.41 -30.5785C356.41 -44.5999 345.559 -55.9664 332.173 -55.9664C318.787 -55.9664 307.935 -44.5999 307.935 -30.5785C307.935 -16.5572 318.787 -5.19065 332.173 -5.19065Z" fill="#FF3D00" fill-opacity="0.04"/>
<path fill-rule="evenodd" clip-rule="evenodd" d="M472.704 -7.64209L488.15 8.53639H509.993V31.4162L525.438 47.5946L509.993 63.7731V86.6529H488.15L472.704 102.831L457.259 86.6529H435.416V63.7731L419.97 47.5946L435.416 31.4162V8.53639H457.259L472.704 -7.64209ZM472.762 73.0436C486.148 73.0436 497 61.677 497 47.6557C497 33.6344 486.148 22.2678 472.762 22.2678C459.376 22.2678 448.525 33.6344 448.525 47.6557C448.525 61.677 459.376 73.0436 472.762 73.0436Z" fill="#FF3D00" fill-opacity="0.04"/>
<path fill-rule="evenodd" clip-rule="evenodd" d="M630.94 -85.8763L646.385 -69.6978H668.229V-46.818L683.674 -30.6396L668.229 -14.4611V8.41871H646.385L630.94 24.5972L615.495 8.41871H593.651V-14.4611L578.206 -30.6396L593.651 -46.818V-69.6978H615.495L630.94 -85.8763ZM630.998 -5.19065C644.384 -5.19065 655.236 -16.5572 655.236 -30.5785C655.236 -44.5999 644.384 -55.9664 630.998 -55.9664C617.612 -55.9664 606.761 -44.5999 606.761 -30.5785C606.761 -16.5572 617.612 -5.19065 630.998 -5.19065Z" fill="#FF3D00" fill-opacity="0.04"/>
<path fill-rule="evenodd" clip-rule="evenodd" d="M771.53 -7.64209L786.975 8.53639H808.819V31.4162L824.264 47.5946L808.819 63.7731V86.6529H786.975L771.53 102.831L756.085 86.6529H734.241V63.7731L718.796 47.5946L734.241 31.4162V8.53639H756.085L771.53 -7.64209ZM771.588 73.0436C784.974 73.0436 795.826 61.677 795.826 47.6557C795.826 33.6344 784.974 22.2678 771.588 22.2678C758.202 22.2678 747.351 33.6344 747.351 47.6557C747.351 61.677 758.202 73.0436 771.588 73.0436Z" fill="#FF3D00" fill-opacity="0.04"/>
<path fill-rule="evenodd" clip-rule="evenodd" d="M929.766 -85.8763L945.211 -69.6978H967.054V-46.8181L982.5 -30.6396L967.054 -14.461V8.41871H945.211L929.766 24.5972L914.32 8.41871H892.477V-14.4612L877.032 -30.6396L892.477 -46.818V-69.6978H914.32L929.766 -85.8763ZM929.824 -5.19065C943.21 -5.19065 954.061 -16.5572 954.061 -30.5785C954.061 -44.5999 943.21 -55.9664 929.824 -55.9664C916.438 -55.9664 905.586 -44.5999 905.586 -30.5785C905.586 -16.5572 916.438 -5.19065 929.824 -5.19065Z" fill="#FF3D00" fill-opacity="0.04"/>
<path fill-rule="evenodd" clip-rule="evenodd" d="M1070.36 -7.64209L1085.8 8.53639H1107.64V31.4161L1123.09 47.5946L1107.64 63.7732V86.6529H1085.8L1070.36 102.831L1054.91 86.6529H1033.07V63.773L1017.62 47.5946L1033.07 31.4162V8.53639H1054.91L1070.36 -7.64209ZM1070.41 73.0436C1083.8 73.0436 1094.65 61.677 1094.65 47.6557C1094.65 33.6344 1083.8 22.2678 1070.41 22.2678C1057.03 22.2678 1046.18 33.6344 1046.18 47.6557C1046.18 61.677 1057.03 73.0436 1070.41 73.0436Z" fill="#FF3D00" fill-opacity="0.04"/>
<path fill-rule="evenodd" clip-rule="evenodd" d="M1228.59 -85.8763L1244.04 -69.6978H1265.88V-46.818L1281.33 -30.6396L1265.88 -14.4611V8.41871H1244.04L1228.59 24.5972L1213.15 8.41871H1191.3V-14.4611L1175.86 -30.6396L1191.3 -46.818V-69.6978H1213.15L1228.59 -85.8763ZM1228.65 -5.19065C1242.04 -5.19065 1252.89 -16.5572 1252.89 -30.5785C1252.89 -44.5999 1242.04 -55.9664 1228.65 -55.9664C1215.26 -55.9664 1204.41 -44.5999 1204.41 -30.5785C1204.41 -16.5572 1215.26 -5.19065 1228.65 -5.19065Z" fill="#FF3D00" fill-opacity="0.04"/>
<path fill-rule="evenodd" clip-rule="evenodd" d="M1369.18 -7.64209L1384.63 8.53639H1406.47V31.4161L1421.92 47.5946L1406.47 63.7732V86.6529H1384.63L1369.18 102.831L1353.74 86.6529H1331.89V63.773L1316.45 47.5946L1331.89 31.4162V8.53639H1353.74L1369.18 -7.64209ZM1369.24 73.0436C1382.63 73.0436 1393.48 61.677 1393.48 47.6557C1393.48 33.6344 1382.63 22.2678 1369.24 22.2678C1355.85 22.2678 1345 33.6344 1345 47.6557C1345 61.677 1355.85 73.0436 1369.24 73.0436Z" fill="#FF3D00" fill-opacity="0.04"/>
<path fill-rule="evenodd" clip-rule="evenodd" d="M33.2887 70.6278L48.7342 86.8062H70.5773V109.686L86.0227 125.864L70.5773 142.043V164.923H48.7342L33.2887 181.101L17.8433 164.923H-3.99974V142.043L-19.4452 125.864L-3.99974 109.686V86.8062H17.8433L33.2887 70.6278ZM33.3469 151.313C46.733 151.313 57.5845 139.947 57.5845 125.925C57.5845 111.904 46.733 100.538 33.3469 100.538C19.9609 100.538 9.10941 111.904 9.10941 125.925C9.10941 139.947 19.9609 151.313 33.3469 151.313Z" fill="#FF3D00" fill-opacity="0.04"/>
<path fill-rule="evenodd" clip-rule="evenodd" d="M173.879 148.862L189.324 165.04H211.167V187.92L226.613 204.099L211.167 220.277V243.157H189.324L173.879 259.335L158.433 243.157H136.59V220.277L121.145 204.099L136.59 187.92V165.04H158.433L173.879 148.862ZM173.937 229.548C187.323 229.548 198.174 218.181 198.174 204.16C198.174 190.138 187.323 178.772 173.937 178.772C160.551 178.772 149.699 190.138 149.699 204.16C149.699 218.181 160.551 229.548 173.937 229.548Z" fill="#FF3D00" fill-opacity="0.04"/>
<path fill-rule="evenodd" clip-rule="evenodd" d="M332.114 70.6278L347.56 86.8062H369.403V109.686L384.848 125.864L369.403 142.043V164.923H347.56L332.114 181.101L316.669 164.923H294.826V142.043L279.38 125.864L294.826 109.686V86.8062H316.669L332.114 70.6278ZM332.173 151.313C345.559 151.313 356.41 139.947 356.41 125.925C356.41 111.904 345.559 100.538 332.173 100.538C318.787 100.538 307.935 111.904 307.935 125.925C307.935 139.947 318.787 151.313 332.173 151.313Z" fill="#FF3D00" fill-opacity="0.04"/>
<path fill-rule="evenodd" clip-rule="evenodd" d="M472.704 148.862L488.15 165.04H509.993V187.92L525.438 204.099L509.993 220.277V243.157H488.15L472.704 259.335L457.259 243.157H435.416V220.277L419.97 204.099L435.416 187.92V165.04H457.259L472.704 148.862ZM472.762 229.548C486.148 229.548 497 218.181 497 204.16C497 190.138 486.148 178.772 472.762 178.772C459.376 178.772 448.525 190.138 448.525 204.16C448.525 218.181 459.376 229.548 472.762 229.548Z" fill="#FF3D00" fill-opacity="0.04"/>
<path fill-rule="evenodd" clip-rule="evenodd" d="M630.94 70.6278L646.385 86.8062H668.229V109.686L683.674 125.864L668.229 142.043V164.923H646.385L630.94 181.101L615.495 164.923H593.651V142.043L578.206 125.864L593.651 109.686V86.8062H615.495L630.94 70.6278ZM630.998 151.313C644.384 151.313 655.236 139.947 655.236 125.925C655.236 111.904 644.384 100.538 630.998 100.538C617.612 100.538 606.761 111.904 606.761 125.925C606.761 139.947 617.612 151.313 630.998 151.313Z" fill="#FF3D00" fill-opacity="0.04"/>
<path fill-rule="evenodd" clip-rule="evenodd" d="M771.53 148.862L786.975 165.04H808.819V187.92L824.264 204.099L808.819 220.277V243.157H786.975L771.53 259.335L756.085 243.157H734.241V220.277L718.796 204.099L734.241 187.92V165.04H756.085L771.53 148.862ZM771.588 229.548C784.974 229.548 795.826 218.181 795.826 204.16C795.826 190.138 784.974 178.772 771.588 178.772C758.202 178.772 747.351 190.138 747.351 204.16C747.351 218.181 758.202 229.548 771.588 229.548Z" fill="#FF3D00" fill-opacity="0.04"/>
<path fill-rule="evenodd" clip-rule="evenodd" d="M929.766 70.6278L945.211 86.8062H967.054V109.686L982.5 125.864L967.054 142.043V164.923H945.211L929.766 181.101L914.32 164.923H892.477V142.043L877.032 125.864L892.477 109.686V86.8062H914.32L929.766 70.6278ZM929.824 151.313C943.21 151.313 954.061 139.947 954.061 125.925C954.061 111.904 943.21 100.538 929.824 100.538C916.438 100.538 905.586 111.904 905.586 125.925C905.586 139.947 916.438 151.313 929.824 151.313Z" fill="#FF3D00" fill-opacity="0.04"/>
<path fill-rule="evenodd" clip-rule="evenodd" d="M1070.36 148.862L1085.8 165.04H1107.64V187.92L1123.09 204.099L1107.64 220.277V243.157H1085.8L1070.36 259.335L1054.91 243.157H1033.07V220.277L1017.62 204.099L1033.07 187.92V165.04H1054.91L1070.36 148.862ZM1070.41 229.548C1083.8 229.548 1094.65 218.181 1094.65 204.16C1094.65 190.138 1083.8 178.772 1070.41 178.772C1057.03 178.772 1046.18 190.138 1046.18 204.16C1046.18 218.181 1057.03 229.548 1070.41 229.548Z" fill="#FF3D00" fill-opacity="0.04"/>
<path fill-rule="evenodd" clip-rule="evenodd" d="M1228.59 70.6278L1244.04 86.8062H1265.88V109.686L1281.33 125.864L1265.88 142.043V164.923H1244.04L1228.59 181.101L1213.15 164.923H1191.3V142.043L1175.86 125.864L1191.3 109.686V86.8062H1213.15L1228.59 70.6278ZM1228.65 151.313C1242.04 151.313 1252.89 139.947 1252.89 125.925C1252.89 111.904 1242.04 100.538 1228.65 100.538C1215.26 100.538 1204.41 111.904 1204.41 125.925C1204.41 139.947 1215.26 151.313 1228.65 151.313Z" fill="#FF3D00" fill-opacity="0.04"/>
<path fill-rule="evenodd" clip-rule="evenodd" d="M1369.18 148.862L1384.63 165.04H1406.47V187.92L1421.92 204.099L1406.47 220.277V243.157H1384.63L1369.18 259.335L1353.74 243.157H1331.89V220.277L1316.45 204.099L1331.89 187.92V165.04H1353.74L1369.18 148.862ZM1369.24 229.548C1382.63 229.548 1393.48 218.181 1393.48 204.16C1393.48 190.138 1382.63 178.772 1369.24 178.772C1355.85 178.772 1345 190.138 1345 204.16C1345 218.181 1355.85 229.548 1369.24 229.548Z" fill="#FF3D00" fill-opacity="0.04"/>
<path fill-rule="evenodd" clip-rule="evenodd" d="M33.2887 227.132L48.7342 243.31H70.5773V266.19L86.0227 282.369L70.5773 298.547V321.427H48.7341L33.2887 337.605L17.8433 321.427H-3.99974V298.547L-19.4452 282.369L-3.99974 266.19V243.31H17.8433L33.2887 227.132ZM33.3469 307.817C46.733 307.817 57.5845 296.451 57.5845 282.43C57.5845 268.408 46.733 257.042 33.3469 257.042C19.9609 257.042 9.10941 268.408 9.10941 282.43C9.10941 296.451 19.9609 307.817 33.3469 307.817Z" fill="#FF3D00" fill-opacity="0.04"/>
<path fill-rule="evenodd" clip-rule="evenodd" d="M173.879 305.366L189.324 321.545H211.167V344.424L226.613 360.603L211.167 376.781V399.661H189.324L173.879 415.839L158.433 399.661H136.59V376.781L121.145 360.603L136.59 344.424V321.545H158.433L173.879 305.366ZM173.937 386.052C187.323 386.052 198.174 374.685 198.174 360.664C198.174 346.643 187.323 335.276 173.937 335.276C160.551 335.276 149.699 346.643 149.699 360.664C149.699 374.685 160.551 386.052 173.937 386.052Z" fill="#FF3D00" fill-opacity="0.04"/>
<path fill-rule="evenodd" clip-rule="evenodd" d="M332.114 227.132L347.56 243.31H369.403V266.19L384.848 282.369L369.403 298.547V321.427H347.56L332.114 337.605L316.669 321.427H294.826V298.547L279.38 282.369L294.826 266.19V243.31H316.669L332.114 227.132ZM332.173 307.817C345.559 307.817 356.41 296.451 356.41 282.43C356.41 268.408 345.559 257.042 332.173 257.042C318.787 257.042 307.935 268.408 307.935 282.43C307.935 296.451 318.787 307.817 332.173 307.817Z" fill="#FF3D00" fill-opacity="0.04"/>
<path fill-rule="evenodd" clip-rule="evenodd" d="M472.704 305.366L488.15 321.545H509.993V344.424L525.438 360.603L509.993 376.781V399.661H488.15L472.704 415.839L457.259 399.661H435.416V376.781L419.97 360.603L435.416 344.424V321.545H457.259L472.704 305.366ZM472.762 386.052C486.148 386.052 497 374.685 497 360.664C497 346.643 486.148 335.276 472.762 335.276C459.376 335.276 448.525 346.643 448.525 360.664C448.525 374.685 459.376 386.052 472.762 386.052Z" fill="#FF3D00" fill-opacity="0.04"/>
<path fill-rule="evenodd" clip-rule="evenodd" d="M630.94 227.132L646.385 243.31H668.229V266.19L683.674 282.369L668.229 298.547V321.427H646.385L630.94 337.605L615.495 321.427H593.651V298.547L578.206 282.369L593.651 266.19V243.31H615.495L630.94 227.132ZM630.998 307.817C644.384 307.817 655.236 296.451 655.236 282.43C655.236 268.408 644.384 257.042 630.998 257.042C617.612 257.042 606.761 268.408 606.761 282.43C606.761 296.451 617.612 307.817 630.998 307.817Z" fill="#FF3D00" fill-opacity="0.04"/>
<path fill-rule="evenodd" clip-rule="evenodd" d="M771.53 305.366L786.975 321.545H808.819V344.424L824.264 360.603L808.819 376.781V399.661H786.975L771.53 415.839L756.085 399.661H734.241V376.781L718.796 360.603L734.241 344.424V321.545H756.085L771.53 305.366ZM771.588 386.052C784.974 386.052 795.826 374.685 795.826 360.664C795.826 346.643 784.974 335.276 771.588 335.276C758.202 335.276 747.351 346.643 747.351 360.664C747.351 374.685 758.202 386.052 771.588 386.052Z" fill="#FF3D00" fill-opacity="0.04"/>
<path fill-rule="evenodd" clip-rule="evenodd" d="M929.766 227.132L945.211 243.31H967.054V266.19L982.5 282.369L967.054 298.547V321.427H945.211L929.766 337.605L914.32 321.427H892.477V298.547L877.032 282.369L892.477 266.19V243.31H914.32L929.766 227.132ZM929.824 307.817C943.21 307.817 954.061 296.451 954.061 282.43C954.061 268.408 943.21 257.042 929.824 257.042C916.438 257.042 905.586 268.408 905.586 282.43C905.586 296.451 916.438 307.817 929.824 307.817Z" fill="#FF3D00" fill-opacity="0.04"/>
<path fill-rule="evenodd" clip-rule="evenodd" d="M1070.36 305.366L1085.8 321.545H1107.64V344.424L1123.09 360.603L1107.64 376.781V399.661H1085.8L1070.36 415.839L1054.91 399.661H1033.07V376.781L1017.62 360.603L1033.07 344.424V321.545H1054.91L1070.36 305.366ZM1070.41 386.052C1083.8 386.052 1094.65 374.685 1094.65 360.664C1094.65 346.643 1083.8 335.276 1070.41 335.276C1057.03 335.276 1046.18 346.643 1046.18 360.664C1046.18 374.685 1057.03 386.052 1070.41 386.052Z" fill="#FF3D00" fill-opacity="0.04"/>
<path fill-rule="evenodd" clip-rule="evenodd" d="M1228.59 227.132L1244.04 243.31H1265.88V266.19L1281.33 282.369L1265.88 298.547V321.427H1244.04L1228.59 337.605L1213.15 321.427H1191.3V298.547L1175.86 282.369L1191.3 266.19V243.31H1213.15L1228.59 227.132ZM1228.65 307.817C1242.04 307.817 1252.89 296.451 1252.89 282.43C1252.89 268.408 1242.04 257.042 1228.65 257.042C1215.26 257.042 1204.41 268.408 1204.41 282.43C1204.41 296.451 1215.26 307.817 1228.65 307.817Z" fill="#FF3D00" fill-opacity="0.04"/>
<path fill-rule="evenodd" clip-rule="evenodd" d="M1369.18 305.366L1384.63 321.545H1406.47V344.424L1421.92 360.603L1406.47 376.781V399.661H1384.63L1369.18 415.839L1353.74 399.661H1331.89V376.781L1316.45 360.603L1331.89 344.424V321.545H1353.74L1369.18 305.366ZM1369.24 386.052C1382.63 386.052 1393.48 374.685 1393.48 360.664C1393.48 346.643 1382.63 335.276 1369.24 335.276C1355.85 335.276 1345 346.643 1345 360.664C1345 374.685 1355.85 386.052 1369.24 386.052Z" fill="#FF3D00" fill-opacity="0.04"/>
</g>
<path d="M358.157 127.989L345.323 74.5778C342.634 63.5778 333.101 56 321.979 56H152.212C141.212 56 131.557 63.7 128.99 74.5778L116.157 127.989C113.223 140.456 115.912 153.167 123.734 163.189C124.712 164.533 126.057 165.511 127.157 166.733V251.556C127.157 265 138.157 276 151.601 276H322.712C336.157 276 347.157 265 347.157 251.556V166.733C348.257 165.633 349.601 164.533 350.579 163.311C358.401 153.289 361.212 140.456 358.157 127.989V127.989ZM249.379 80.4444H273.334L279.934 135.689C280.546 140.456 279.079 145.222 275.901 148.767C273.212 151.944 269.301 153.778 264.29 153.778C256.101 153.778 249.379 146.567 249.379 137.767V80.4444ZM194.257 135.689L200.979 80.4444H224.934V137.767C224.934 146.567 218.212 153.778 209.168 153.778C205.012 153.778 201.223 151.944 198.29 148.767C196.766 146.974 195.623 144.89 194.93 142.642C194.237 140.394 194.007 138.028 194.257 135.689V135.689ZM142.923 148.033C139.746 144 138.646 138.744 139.868 133.733L152.212 80.4444H176.29L169.201 139.844C168.223 147.789 161.868 153.778 154.412 153.778C148.301 153.778 144.634 150.233 142.923 148.033V148.033ZM322.712 251.556H151.601V177.856C152.579 177.978 153.434 178.222 154.412 178.222C165.046 178.222 174.701 173.822 181.79 166.611C189.123 173.944 198.901 178.222 210.023 178.222C220.657 178.222 230.19 173.822 237.279 166.856C244.49 173.822 254.268 178.222 265.268 178.222C275.534 178.222 285.312 173.944 292.646 166.611C299.734 173.822 309.39 178.222 320.023 178.222C321.001 178.222 321.857 177.978 322.834 177.856V251.556H322.712ZM331.39 148.033C329.679 150.233 326.012 153.778 319.901 153.778C312.446 153.778 305.968 147.789 305.112 139.844L298.023 80.4444L321.612 80.3222L334.446 133.733C335.668 138.867 334.568 144.122 331.39 148.033Z" fill="#FF6331"/>
<path d="M478.44 114H472.9L488.923 70.3636H494.377L510.4 114H504.86L491.82 77.267H491.479L478.44 114ZM480.485 96.9545H502.815V101.642H480.485V96.9545ZM516.515 126.273V81.2727H521.373V86.4716H521.969C522.339 85.9034 522.85 85.179 523.504 84.2983C524.171 83.4034 525.123 82.608 526.359 81.9119C527.609 81.2017 529.299 80.8466 531.43 80.8466C534.185 80.8466 536.614 81.5355 538.717 82.9134C540.819 84.2912 542.46 86.2443 543.639 88.7727C544.817 91.3011 545.407 94.2841 545.407 97.7216C545.407 101.188 544.817 104.192 543.639 106.734C542.46 109.263 540.826 111.223 538.738 112.615C536.65 113.993 534.242 114.682 531.515 114.682C529.413 114.682 527.729 114.334 526.465 113.638C525.201 112.928 524.228 112.125 523.546 111.23C522.864 110.321 522.339 109.568 521.969 108.972H521.543V126.273H516.515ZM521.458 97.6364C521.458 100.108 521.82 102.288 522.545 104.178C523.269 106.053 524.327 107.523 525.719 108.588C527.112 109.639 528.816 110.165 530.833 110.165C532.935 110.165 534.69 109.611 536.096 108.503C537.516 107.381 538.582 105.875 539.292 103.986C540.016 102.082 540.379 99.9659 540.379 97.6364C540.379 95.3352 540.023 93.2614 539.313 91.4148C538.617 89.554 537.559 88.0838 536.139 87.0043C534.732 85.9105 532.964 85.3636 530.833 85.3636C528.788 85.3636 527.069 85.8821 525.677 86.919C524.285 87.9418 523.234 89.3764 522.523 91.223C521.813 93.0554 521.458 95.1932 521.458 97.6364ZM553.077 126.273V81.2727H557.935V86.4716H558.532C558.901 85.9034 559.413 85.179 560.066 84.2983C560.734 83.4034 561.685 82.608 562.921 81.9119C564.171 81.2017 565.862 80.8466 567.992 80.8466C570.748 80.8466 573.177 81.5355 575.279 82.9134C577.381 84.2912 579.022 86.2443 580.201 88.7727C581.38 91.3011 581.969 94.2841 581.969 97.7216C581.969 101.188 581.38 104.192 580.201 106.734C579.022 109.263 577.389 111.223 575.3 112.615C573.212 113.993 570.805 114.682 568.077 114.682C565.975 114.682 564.292 114.334 563.028 113.638C561.764 112.928 560.79 112.125 560.109 111.23C559.427 110.321 558.901 109.568 558.532 108.972H558.106V126.273H553.077ZM558.021 97.6364C558.021 100.108 558.383 102.288 559.107 104.178C559.832 106.053 560.89 107.523 562.282 108.588C563.674 109.639 565.379 110.165 567.396 110.165C569.498 110.165 571.252 109.611 572.658 108.503C574.079 107.381 575.144 105.875 575.854 103.986C576.579 102.082 576.941 99.9659 576.941 97.6364C576.941 95.3352 576.586 93.2614 575.876 91.4148C575.18 89.554 574.121 88.0838 572.701 87.0043C571.295 85.9105 569.526 85.3636 567.396 85.3636C565.35 85.3636 563.631 85.8821 562.239 86.919C560.847 87.9418 559.796 89.3764 559.086 91.223C558.376 93.0554 558.021 95.1932 558.021 97.6364ZM631.06 81.2727C630.805 79.1136 629.768 77.4375 627.95 76.2443C626.131 75.0511 623.901 74.4545 621.259 74.4545C619.327 74.4545 617.637 74.767 616.188 75.392C614.754 76.017 613.631 76.8764 612.822 77.9702C612.026 79.0639 611.629 80.3068 611.629 81.6989C611.629 82.8636 611.906 83.8651 612.46 84.7031C613.028 85.527 613.752 86.2159 614.633 86.7699C615.514 87.3097 616.437 87.7571 617.403 88.1122C618.369 88.4531 619.256 88.7301 620.066 88.9432L624.498 90.1364C625.634 90.4347 626.898 90.8466 628.29 91.3722C629.697 91.8977 631.039 92.6151 632.317 93.5241C633.61 94.419 634.675 95.5696 635.514 96.9759C636.352 98.3821 636.771 100.108 636.771 102.153C636.771 104.511 636.153 106.642 634.917 108.545C633.695 110.449 631.906 111.962 629.548 113.084C627.204 114.206 624.356 114.767 621.004 114.767C617.879 114.767 615.173 114.263 612.886 113.254C610.613 112.246 608.823 110.839 607.516 109.036C606.224 107.232 605.492 105.136 605.322 102.75H610.776C610.918 104.398 611.472 105.761 612.438 106.841C613.418 107.906 614.654 108.702 616.146 109.227C617.651 109.739 619.271 109.994 621.004 109.994C623.021 109.994 624.832 109.668 626.437 109.014C628.042 108.347 629.313 107.423 630.251 106.244C631.188 105.051 631.657 103.659 631.657 102.068C631.657 100.619 631.252 99.4403 630.442 98.5312C629.633 97.6222 628.567 96.8835 627.246 96.3153C625.925 95.7472 624.498 95.25 622.964 94.8239L617.594 93.2898C614.185 92.3097 611.487 90.9105 609.498 89.0923C607.509 87.2741 606.515 84.8949 606.515 81.9545C606.515 79.5114 607.175 77.3807 608.496 75.5625C609.832 73.7301 611.621 72.3097 613.866 71.3011C616.124 70.2784 618.646 69.767 621.43 69.767C624.242 69.767 626.742 70.2713 628.93 71.2798C631.117 72.2741 632.85 73.6378 634.129 75.3707C635.421 77.1037 636.103 79.071 636.174 81.2727H631.06ZM659.01 81.2727V85.5341H642.049V81.2727H659.01ZM646.993 73.4318H652.021V104.625C652.021 106.045 652.227 107.111 652.639 107.821C653.065 108.517 653.605 108.986 654.258 109.227C654.926 109.455 655.629 109.568 656.368 109.568C656.922 109.568 657.376 109.54 657.731 109.483C658.086 109.412 658.37 109.355 658.583 109.312L659.606 113.83C659.265 113.957 658.789 114.085 658.179 114.213C657.568 114.355 656.794 114.426 655.856 114.426C654.436 114.426 653.044 114.121 651.68 113.51C650.331 112.899 649.208 111.969 648.314 110.719C647.433 109.469 646.993 107.892 646.993 105.989V73.4318ZM679.517 114.682C676.563 114.682 673.971 113.979 671.74 112.572C669.525 111.166 667.792 109.199 666.542 106.67C665.306 104.142 664.688 101.187 664.688 97.8068C664.688 94.3977 665.306 91.4219 666.542 88.8793C667.792 86.3366 669.525 84.3622 671.74 82.956C673.971 81.5497 676.563 80.8466 679.517 80.8466C682.472 80.8466 685.057 81.5497 687.273 82.956C689.503 84.3622 691.236 86.3366 692.472 88.8793C693.722 91.4219 694.347 94.3977 694.347 97.8068C694.347 101.187 693.722 104.142 692.472 106.67C691.236 109.199 689.503 111.166 687.273 112.572C685.057 113.979 682.472 114.682 679.517 114.682ZM679.517 110.165C681.762 110.165 683.608 109.589 685.057 108.439C686.506 107.288 687.578 105.776 688.275 103.901C688.971 102.026 689.319 99.9943 689.319 97.8068C689.319 95.6193 688.971 93.581 688.275 91.6918C687.578 89.8026 686.506 88.2756 685.057 87.1108C683.608 85.946 681.762 85.3636 679.517 85.3636C677.273 85.3636 675.427 85.946 673.978 87.1108C672.529 88.2756 671.456 89.8026 670.76 91.6918C670.064 93.581 669.716 95.6193 669.716 97.8068C669.716 99.9943 670.064 102.026 670.76 103.901C671.456 105.776 672.529 107.288 673.978 108.439C675.427 109.589 677.273 110.165 679.517 110.165ZM702.023 114V81.2727H706.881V86.2159H707.222C707.818 84.5966 708.898 83.2827 710.46 82.2741C712.023 81.2656 713.784 80.7614 715.744 80.7614C716.114 80.7614 716.575 80.7685 717.129 80.7827C717.683 80.7969 718.102 80.8182 718.386 80.8466V85.9602C718.216 85.9176 717.825 85.8537 717.215 85.7685C716.618 85.669 715.986 85.6193 715.318 85.6193C713.727 85.6193 712.307 85.9531 711.057 86.6207C709.821 87.2741 708.841 88.1832 708.116 89.348C707.406 90.4986 707.051 91.8125 707.051 93.2898V114H702.023ZM737.072 114.682C733.919 114.682 731.199 113.986 728.912 112.594C726.639 111.188 724.885 109.227 723.649 106.713C722.428 104.185 721.817 101.244 721.817 97.892C721.817 94.5398 722.428 91.5852 723.649 89.0284C724.885 86.4574 726.604 84.4545 728.805 83.0199C731.021 81.571 733.607 80.8466 736.561 80.8466C738.266 80.8466 739.949 81.1307 741.611 81.6989C743.273 82.267 744.786 83.1903 746.149 84.4688C747.513 85.733 748.599 87.4091 749.409 89.4972C750.219 91.5852 750.624 94.1562 750.624 97.2102V99.3409H725.396V94.9943H745.51C745.51 93.1477 745.141 91.5 744.402 90.0511C743.678 88.6023 742.641 87.4588 741.291 86.6207C739.956 85.7827 738.379 85.3636 736.561 85.3636C734.558 85.3636 732.825 85.8608 731.362 86.8551C729.913 87.8352 728.798 89.1136 728.017 90.6903C727.236 92.267 726.845 93.9574 726.845 95.7614V98.6591C726.845 101.131 727.271 103.226 728.124 104.945C728.99 106.649 730.19 107.949 731.724 108.844C733.259 109.724 735.041 110.165 737.072 110.165C738.393 110.165 739.587 109.98 740.652 109.611C741.732 109.227 742.662 108.659 743.443 107.906C744.224 107.139 744.828 106.187 745.254 105.051L750.112 106.415C749.601 108.062 748.741 109.511 747.534 110.761C746.327 111.997 744.835 112.963 743.06 113.659C741.284 114.341 739.288 114.682 737.072 114.682Z" fill="black"/>
<path d="M490.218 151H487.752C487.606 150.291 487.351 149.668 486.987 149.131C486.629 148.594 486.191 148.143 485.674 147.778C485.164 147.407 484.597 147.129 483.974 146.943C483.351 146.758 482.701 146.665 482.025 146.665C480.792 146.665 479.675 146.976 478.674 147.599C477.68 148.223 476.888 149.141 476.298 150.354C475.714 151.567 475.423 153.055 475.423 154.818C475.423 156.581 475.714 158.07 476.298 159.283C476.888 160.496 477.68 161.414 478.674 162.037C479.675 162.66 480.792 162.972 482.025 162.972C482.701 162.972 483.351 162.879 483.974 162.693C484.597 162.508 485.164 162.232 485.674 161.868C486.191 161.497 486.629 161.043 486.987 160.506C487.351 159.962 487.606 159.339 487.752 158.636H490.218C490.032 159.677 489.694 160.608 489.204 161.43C488.713 162.252 488.103 162.952 487.374 163.528C486.645 164.098 485.826 164.533 484.918 164.831C484.017 165.129 483.052 165.278 482.025 165.278C480.288 165.278 478.744 164.854 477.391 164.006C476.039 163.157 474.975 161.951 474.2 160.386C473.424 158.822 473.036 156.966 473.036 154.818C473.036 152.67 473.424 150.814 474.2 149.25C474.975 147.686 476.039 146.479 477.391 145.631C478.744 144.782 480.288 144.358 482.025 144.358C483.052 144.358 484.017 144.507 484.918 144.805C485.826 145.104 486.645 145.541 487.374 146.118C488.103 146.688 488.713 147.384 489.204 148.206C489.694 149.021 490.032 149.953 490.218 151ZM503.51 158.756V149.727H505.856V165H503.51V162.415H503.351C502.993 163.19 502.436 163.85 501.68 164.393C500.924 164.93 499.97 165.199 498.816 165.199C497.862 165.199 497.013 164.99 496.271 164.572C495.529 164.148 494.945 163.512 494.521 162.663C494.097 161.808 493.885 160.731 493.885 159.432V149.727H496.231V159.273C496.231 160.386 496.543 161.275 497.166 161.938C497.796 162.6 498.598 162.932 499.572 162.932C500.155 162.932 500.749 162.783 501.352 162.484C501.962 162.186 502.472 161.729 502.883 161.112C503.301 160.496 503.51 159.71 503.51 158.756ZM510.154 165V149.727H512.421V152.034H512.58C512.859 151.278 513.362 150.665 514.092 150.195C514.821 149.724 515.643 149.489 516.558 149.489C516.73 149.489 516.945 149.492 517.204 149.499C517.462 149.505 517.658 149.515 517.791 149.528V151.915C517.711 151.895 517.529 151.865 517.244 151.825C516.965 151.779 516.67 151.756 516.359 151.756C515.616 151.756 514.953 151.911 514.37 152.223C513.793 152.528 513.336 152.952 512.998 153.496C512.666 154.033 512.501 154.646 512.501 155.335V165H510.154ZM525.066 165.358C524.099 165.358 523.22 165.176 522.431 164.811C521.643 164.44 521.016 163.906 520.552 163.21C520.088 162.508 519.856 161.659 519.856 160.665C519.856 159.79 520.029 159.08 520.373 158.537C520.718 157.987 521.179 157.556 521.755 157.244C522.332 156.933 522.968 156.701 523.664 156.548C524.367 156.389 525.073 156.263 525.782 156.17C526.71 156.051 527.463 155.962 528.039 155.902C528.623 155.836 529.047 155.726 529.312 155.574C529.584 155.421 529.72 155.156 529.72 154.778V154.699C529.72 153.718 529.451 152.955 528.914 152.412C528.384 151.868 527.579 151.597 526.498 151.597C525.378 151.597 524.5 151.842 523.863 152.332C523.227 152.823 522.779 153.347 522.521 153.903L520.294 153.108C520.691 152.18 521.222 151.457 521.885 150.94C522.554 150.417 523.283 150.052 524.072 149.847C524.868 149.634 525.65 149.528 526.419 149.528C526.909 149.528 527.473 149.588 528.109 149.707C528.752 149.82 529.372 150.055 529.968 150.413C530.572 150.771 531.072 151.312 531.47 152.034C531.868 152.757 532.066 153.724 532.066 154.938V165H529.72V162.932H529.601C529.441 163.263 529.176 163.618 528.805 163.996C528.434 164.374 527.94 164.695 527.324 164.96C526.707 165.225 525.955 165.358 525.066 165.358ZM525.424 163.25C526.352 163.25 527.135 163.068 527.771 162.703C528.414 162.339 528.898 161.868 529.223 161.291C529.554 160.714 529.72 160.108 529.72 159.472V157.324C529.62 157.443 529.402 157.553 529.064 157.652C528.732 157.745 528.348 157.828 527.91 157.901C527.479 157.967 527.058 158.027 526.647 158.08C526.243 158.126 525.915 158.166 525.663 158.199C525.053 158.278 524.483 158.408 523.953 158.587C523.429 158.759 523.005 159.021 522.68 159.372C522.362 159.717 522.203 160.187 522.203 160.784C522.203 161.599 522.504 162.216 523.108 162.634C523.717 163.045 524.49 163.25 525.424 163.25ZM542.991 149.727V151.716H535.077V149.727H542.991ZM537.384 146.068H539.73V160.625C539.73 161.288 539.826 161.785 540.018 162.116C540.217 162.441 540.469 162.66 540.774 162.773C541.086 162.879 541.414 162.932 541.759 162.932C542.017 162.932 542.229 162.919 542.395 162.892C542.561 162.859 542.693 162.832 542.793 162.812L543.27 164.92C543.111 164.98 542.889 165.04 542.604 165.099C542.319 165.166 541.957 165.199 541.52 165.199C540.857 165.199 540.207 165.056 539.571 164.771C538.941 164.486 538.418 164.052 538 163.469C537.589 162.885 537.384 162.15 537.384 161.261V146.068ZM552.761 165.318C551.289 165.318 550.02 164.993 548.952 164.344C547.892 163.688 547.073 162.773 546.496 161.599C545.926 160.42 545.641 159.047 545.641 157.483C545.641 155.919 545.926 154.54 546.496 153.347C547.073 152.147 547.875 151.212 548.903 150.543C549.937 149.866 551.143 149.528 552.522 149.528C553.317 149.528 554.103 149.661 554.879 149.926C555.654 150.191 556.36 150.622 556.996 151.219C557.633 151.809 558.14 152.591 558.518 153.565C558.896 154.54 559.085 155.74 559.085 157.165V158.159H547.312V156.131H556.698C556.698 155.269 556.526 154.5 556.181 153.824C555.843 153.148 555.359 152.614 554.729 152.223C554.106 151.832 553.371 151.636 552.522 151.636C551.587 151.636 550.779 151.868 550.096 152.332C549.42 152.79 548.899 153.386 548.535 154.122C548.17 154.858 547.988 155.647 547.988 156.489V157.841C547.988 158.994 548.187 159.972 548.585 160.774C548.989 161.57 549.549 162.176 550.265 162.594C550.981 163.005 551.813 163.21 552.761 163.21C553.377 163.21 553.934 163.124 554.431 162.952C554.935 162.773 555.369 162.508 555.734 162.156C556.098 161.798 556.38 161.354 556.579 160.824L558.846 161.46C558.607 162.229 558.206 162.905 557.643 163.489C557.079 164.065 556.383 164.516 555.555 164.841C554.726 165.159 553.795 165.318 552.761 165.318ZM568.421 165.318C567.148 165.318 566.025 164.997 565.05 164.354C564.076 163.704 563.314 162.789 562.764 161.609C562.213 160.423 561.938 159.021 561.938 157.403C561.938 155.799 562.213 154.407 562.764 153.227C563.314 152.047 564.079 151.136 565.06 150.493C566.041 149.85 567.175 149.528 568.461 149.528C569.455 149.528 570.241 149.694 570.817 150.026C571.401 150.35 571.845 150.722 572.15 151.139C572.461 151.55 572.703 151.888 572.876 152.153H573.075V144.636H575.421V165H573.154V162.653H572.876C572.703 162.932 572.458 163.283 572.14 163.707C571.822 164.125 571.368 164.5 570.778 164.831C570.188 165.156 569.402 165.318 568.421 165.318ZM568.739 163.21C569.681 163.21 570.476 162.965 571.126 162.474C571.775 161.977 572.269 161.291 572.607 160.416C572.945 159.535 573.114 158.517 573.114 157.364C573.114 156.223 572.949 155.226 572.617 154.371C572.286 153.509 571.795 152.839 571.146 152.362C570.496 151.878 569.694 151.636 568.739 151.636C567.745 151.636 566.916 151.892 566.254 152.402C565.597 152.906 565.103 153.592 564.772 154.46C564.447 155.322 564.285 156.29 564.285 157.364C564.285 158.451 564.451 159.438 564.782 160.327C565.12 161.208 565.617 161.911 566.273 162.435C566.936 162.952 567.758 163.21 568.739 163.21ZM587.92 165V149.727H590.187V152.114H590.386C590.704 151.298 591.218 150.665 591.927 150.214C592.636 149.757 593.488 149.528 594.482 149.528C595.49 149.528 596.328 149.757 596.998 150.214C597.674 150.665 598.201 151.298 598.579 152.114H598.738C599.129 151.325 599.716 150.698 600.498 150.234C601.28 149.764 602.218 149.528 603.312 149.528C604.677 149.528 605.794 149.956 606.663 150.811C607.531 151.66 607.965 152.982 607.965 154.778V165H605.619V154.778C605.619 153.652 605.31 152.846 604.694 152.362C604.077 151.878 603.352 151.636 602.516 151.636C601.442 151.636 600.611 151.961 600.021 152.611C599.431 153.254 599.136 154.069 599.136 155.057V165H596.749V154.54C596.749 153.671 596.468 152.972 595.904 152.442C595.341 151.905 594.615 151.636 593.727 151.636C593.117 151.636 592.547 151.799 592.016 152.124C591.493 152.448 591.068 152.899 590.744 153.476C590.425 154.046 590.266 154.705 590.266 155.455V165H587.92ZM616.75 165.358C615.782 165.358 614.904 165.176 614.115 164.811C613.326 164.44 612.7 163.906 612.236 163.21C611.772 162.508 611.54 161.659 611.54 160.665C611.54 159.79 611.712 159.08 612.057 158.537C612.402 157.987 612.862 157.556 613.439 157.244C614.016 156.933 614.652 156.701 615.348 156.548C616.051 156.389 616.757 156.263 617.466 156.17C618.394 156.051 619.146 155.962 619.723 155.902C620.306 155.836 620.731 155.726 620.996 155.574C621.268 155.421 621.403 155.156 621.403 154.778V154.699C621.403 153.718 621.135 152.955 620.598 152.412C620.068 151.868 619.262 151.597 618.182 151.597C617.062 151.597 616.183 151.842 615.547 152.332C614.911 152.823 614.463 153.347 614.205 153.903L611.977 153.108C612.375 152.18 612.905 151.457 613.568 150.94C614.238 150.417 614.967 150.052 615.756 149.847C616.551 149.634 617.333 149.528 618.102 149.528C618.593 149.528 619.156 149.588 619.793 149.707C620.436 149.82 621.055 150.055 621.652 150.413C622.255 150.771 622.756 151.312 623.153 152.034C623.551 152.757 623.75 153.724 623.75 154.938V165H621.403V162.932H621.284C621.125 163.263 620.86 163.618 620.489 163.996C620.117 164.374 619.624 164.695 619.007 164.96C618.391 165.225 617.638 165.358 616.75 165.358ZM617.108 163.25C618.036 163.25 618.818 163.068 619.455 162.703C620.098 162.339 620.581 161.868 620.906 161.291C621.238 160.714 621.403 160.108 621.403 159.472V157.324C621.304 157.443 621.085 157.553 620.747 157.652C620.416 157.745 620.031 157.828 619.594 157.901C619.163 157.967 618.742 158.027 618.331 158.08C617.927 158.126 617.599 158.166 617.347 158.199C616.737 158.278 616.167 158.408 615.636 158.587C615.113 158.759 614.688 159.021 614.364 159.372C614.045 159.717 613.886 160.187 613.886 160.784C613.886 161.599 614.188 162.216 614.791 162.634C615.401 163.045 616.173 163.25 617.108 163.25ZM628.033 165V149.727H630.3V152.034H630.459C630.738 151.278 631.241 150.665 631.971 150.195C632.7 149.724 633.522 149.489 634.436 149.489C634.609 149.489 634.824 149.492 635.083 149.499C635.341 149.505 635.537 149.515 635.669 149.528V151.915C635.59 151.895 635.408 151.865 635.123 151.825C634.844 151.779 634.549 151.756 634.238 151.756C633.495 151.756 632.832 151.911 632.249 152.223C631.672 152.528 631.215 152.952 630.877 153.496C630.545 154.033 630.38 154.646 630.38 155.335V165H628.033ZM640.639 159.432L640.599 156.528H641.076L647.758 149.727H650.661L643.542 156.926H643.343L640.639 159.432ZM638.451 165V144.636H640.798V165H638.451ZM648.156 165L642.19 157.443L643.86 155.812L651.139 165H648.156ZM659.456 165.318C657.984 165.318 656.715 164.993 655.648 164.344C654.587 163.688 653.768 162.773 653.192 161.599C652.622 160.42 652.337 159.047 652.337 157.483C652.337 155.919 652.622 154.54 653.192 153.347C653.768 152.147 654.571 151.212 655.598 150.543C656.632 149.866 657.839 149.528 659.217 149.528C660.013 149.528 660.798 149.661 661.574 149.926C662.349 150.191 663.055 150.622 663.692 151.219C664.328 151.809 664.835 152.591 665.213 153.565C665.591 154.54 665.78 155.74 665.78 157.165V158.159H654.007V156.131H663.393C663.393 155.269 663.221 154.5 662.876 153.824C662.538 153.148 662.054 152.614 661.425 152.223C660.802 151.832 660.066 151.636 659.217 151.636C658.283 151.636 657.474 151.868 656.791 152.332C656.115 152.79 655.595 153.386 655.23 154.122C654.866 154.858 654.683 155.647 654.683 156.489V157.841C654.683 158.994 654.882 159.972 655.28 160.774C655.684 161.57 656.244 162.176 656.96 162.594C657.676 163.005 658.508 163.21 659.456 163.21C660.072 163.21 660.629 163.124 661.126 162.952C661.63 162.773 662.064 162.508 662.429 162.156C662.794 161.798 663.075 161.354 663.274 160.824L665.541 161.46C665.303 162.229 664.902 162.905 664.338 163.489C663.775 164.065 663.079 164.516 662.25 164.841C661.421 165.159 660.49 165.318 659.456 165.318ZM675.991 149.727V151.716H668.077V149.727H675.991ZM670.384 146.068H672.73V160.625C672.73 161.288 672.826 161.785 673.018 162.116C673.217 162.441 673.469 162.66 673.774 162.773C674.086 162.879 674.414 162.932 674.759 162.932C675.017 162.932 675.229 162.919 675.395 162.892C675.561 162.859 675.693 162.832 675.793 162.812L676.27 164.92C676.111 164.98 675.889 165.04 675.604 165.099C675.319 165.166 674.957 165.199 674.52 165.199C673.857 165.199 673.207 165.056 672.571 164.771C671.941 164.486 671.418 164.052 671 163.469C670.589 162.885 670.384 162.15 670.384 161.261V146.068ZM679.521 170.727V149.727H681.788V152.153H682.067C682.239 151.888 682.478 151.55 682.783 151.139C683.094 150.722 683.538 150.35 684.115 150.026C684.698 149.694 685.487 149.528 686.482 149.528C687.768 149.528 688.901 149.85 689.882 150.493C690.863 151.136 691.629 152.047 692.179 153.227C692.729 154.407 693.004 155.799 693.004 157.403C693.004 159.021 692.729 160.423 692.179 161.609C691.629 162.789 690.866 163.704 689.892 164.354C688.918 164.997 687.794 165.318 686.521 165.318C685.54 165.318 684.755 165.156 684.165 164.831C683.575 164.5 683.121 164.125 682.803 163.707C682.484 163.283 682.239 162.932 682.067 162.653H681.868V170.727H679.521ZM681.828 157.364C681.828 158.517 681.997 159.535 682.335 160.416C682.673 161.291 683.167 161.977 683.817 162.474C684.466 162.965 685.262 163.21 686.203 163.21C687.184 163.21 688.003 162.952 688.659 162.435C689.322 161.911 689.819 161.208 690.151 160.327C690.489 159.438 690.658 158.451 690.658 157.364C690.658 156.29 690.492 155.322 690.161 154.46C689.836 153.592 689.342 152.906 688.679 152.402C688.023 151.892 687.197 151.636 686.203 151.636C685.249 151.636 684.447 151.878 683.797 152.362C683.147 152.839 682.657 153.509 682.325 154.371C681.994 155.226 681.828 156.223 681.828 157.364ZM698.93 144.636V165H696.584V144.636H698.93ZM707.723 165.358C706.755 165.358 705.877 165.176 705.088 164.811C704.299 164.44 703.672 163.906 703.208 163.21C702.744 162.508 702.512 161.659 702.512 160.665C702.512 159.79 702.685 159.08 703.029 158.537C703.374 157.987 703.835 157.556 704.412 157.244C704.988 156.933 705.625 156.701 706.321 156.548C707.023 156.389 707.729 156.263 708.439 156.17C709.367 156.051 710.119 155.962 710.696 155.902C711.279 155.836 711.703 155.726 711.968 155.574C712.24 155.421 712.376 155.156 712.376 154.778V154.699C712.376 153.718 712.108 152.955 711.571 152.412C711.04 151.868 710.235 151.597 709.154 151.597C708.034 151.597 707.156 151.842 706.52 152.332C705.883 152.823 705.436 153.347 705.177 153.903L702.95 153.108C703.348 152.18 703.878 151.457 704.541 150.94C705.21 150.417 705.94 150.052 706.728 149.847C707.524 149.634 708.306 149.528 709.075 149.528C709.565 149.528 710.129 149.588 710.765 149.707C711.408 149.82 712.028 150.055 712.625 150.413C713.228 150.771 713.728 151.312 714.126 152.034C714.524 152.757 714.723 153.724 714.723 154.938V165H712.376V162.932H712.257C712.098 163.263 711.833 163.618 711.461 163.996C711.09 164.374 710.596 164.695 709.98 164.96C709.363 165.225 708.611 165.358 707.723 165.358ZM708.081 163.25C709.009 163.25 709.791 163.068 710.427 162.703C711.07 162.339 711.554 161.868 711.879 161.291C712.21 160.714 712.376 160.108 712.376 159.472V157.324C712.277 157.443 712.058 157.553 711.72 157.652C711.388 157.745 711.004 157.828 710.566 157.901C710.136 157.967 709.715 158.027 709.304 158.08C708.899 158.126 708.571 158.166 708.319 158.199C707.709 158.278 707.139 158.408 706.609 158.587C706.085 158.759 705.661 159.021 705.336 159.372C705.018 159.717 704.859 160.187 704.859 160.784C704.859 161.599 705.161 162.216 705.764 162.634C706.374 163.045 707.146 163.25 708.081 163.25ZM725.21 165.318C723.778 165.318 722.545 164.98 721.511 164.304C720.477 163.628 719.682 162.696 719.125 161.51C718.568 160.323 718.29 158.968 718.29 157.443C718.29 155.892 718.575 154.523 719.145 153.337C719.722 152.143 720.524 151.212 721.551 150.543C722.585 149.866 723.792 149.528 725.17 149.528C726.244 149.528 727.212 149.727 728.074 150.125C728.936 150.523 729.642 151.08 730.192 151.795C730.742 152.511 731.083 153.347 731.216 154.301H728.869C728.69 153.605 728.293 152.989 727.676 152.452C727.066 151.908 726.244 151.636 725.21 151.636C724.295 151.636 723.493 151.875 722.804 152.352C722.121 152.823 721.588 153.489 721.203 154.351C720.825 155.206 720.636 156.21 720.636 157.364C720.636 158.544 720.822 159.571 721.193 160.446C721.571 161.321 722.101 162 722.784 162.484C723.474 162.968 724.282 163.21 725.21 163.21C725.82 163.21 726.374 163.104 726.871 162.892C727.368 162.68 727.789 162.375 728.134 161.977C728.478 161.58 728.724 161.102 728.869 160.545H731.216C731.083 161.447 730.755 162.259 730.232 162.982C729.715 163.697 729.028 164.268 728.173 164.692C727.325 165.109 726.337 165.318 725.21 165.318ZM741.05 165.318C739.578 165.318 738.309 164.993 737.241 164.344C736.181 163.688 735.362 162.773 734.786 161.599C734.215 160.42 733.93 159.047 733.93 157.483C733.93 155.919 734.215 154.54 734.786 153.347C735.362 152.147 736.164 151.212 737.192 150.543C738.226 149.866 739.432 149.528 740.811 149.528C741.607 149.528 742.392 149.661 743.168 149.926C743.943 150.191 744.649 150.622 745.286 151.219C745.922 151.809 746.429 152.591 746.807 153.565C747.185 154.54 747.374 155.74 747.374 157.165V158.159H735.601V156.131H744.987C744.987 155.269 744.815 154.5 744.47 153.824C744.132 153.148 743.648 152.614 743.018 152.223C742.395 151.832 741.66 151.636 740.811 151.636C739.876 151.636 739.068 151.868 738.385 152.332C737.709 152.79 737.188 153.386 736.824 154.122C736.459 154.858 736.277 155.647 736.277 156.489V157.841C736.277 158.994 736.476 159.972 736.874 160.774C737.278 161.57 737.838 162.176 738.554 162.594C739.27 163.005 740.102 163.21 741.05 163.21C741.666 163.21 742.223 163.124 742.72 162.952C743.224 162.773 743.658 162.508 744.023 162.156C744.387 161.798 744.669 161.354 744.868 160.824L747.135 161.46C746.896 162.229 746.495 162.905 745.932 163.489C745.368 164.065 744.672 164.516 743.844 164.841C743.015 165.159 742.084 165.318 741.05 165.318ZM765.619 149.727V151.716H757.386V149.727H765.619ZM759.852 165V147.619C759.852 146.744 760.058 146.015 760.469 145.432C760.88 144.848 761.413 144.411 762.07 144.119C762.726 143.828 763.419 143.682 764.148 143.682C764.724 143.682 765.195 143.728 765.56 143.821C765.924 143.914 766.196 144 766.375 144.08L765.699 146.108C765.58 146.068 765.414 146.018 765.202 145.959C764.996 145.899 764.724 145.869 764.386 145.869C763.611 145.869 763.051 146.065 762.706 146.456C762.368 146.847 762.199 147.42 762.199 148.176V165H759.852ZM774.484 165.318C773.105 165.318 771.895 164.99 770.854 164.334C769.82 163.678 769.012 162.759 768.428 161.58C767.852 160.4 767.563 159.021 767.563 157.443C767.563 155.852 767.852 154.464 768.428 153.277C769.012 152.09 769.82 151.169 770.854 150.513C771.895 149.857 773.105 149.528 774.484 149.528C775.862 149.528 777.069 149.857 778.103 150.513C779.144 151.169 779.952 152.09 780.529 153.277C781.112 154.464 781.404 155.852 781.404 157.443C781.404 159.021 781.112 160.4 780.529 161.58C779.952 162.759 779.144 163.678 778.103 164.334C777.069 164.99 775.862 165.318 774.484 165.318ZM774.484 163.21C775.531 163.21 776.393 162.942 777.069 162.405C777.745 161.868 778.246 161.162 778.57 160.287C778.895 159.412 779.058 158.464 779.058 157.443C779.058 156.422 778.895 155.471 778.57 154.589C778.246 153.708 777.745 152.995 777.069 152.452C776.393 151.908 775.531 151.636 774.484 151.636C773.436 151.636 772.575 151.908 771.898 152.452C771.222 152.995 770.722 153.708 770.397 154.589C770.072 155.471 769.91 156.422 769.91 157.443C769.91 158.464 770.072 159.412 770.397 160.287C770.722 161.162 771.222 161.868 771.898 162.405C772.575 162.942 773.436 163.21 774.484 163.21ZM784.986 165V149.727H787.253V152.034H787.412C787.691 151.278 788.195 150.665 788.924 150.195C789.653 149.724 790.475 149.489 791.39 149.489C791.562 149.489 791.777 149.492 792.036 149.499C792.294 149.505 792.49 149.515 792.623 149.528V151.915C792.543 151.895 792.361 151.865 792.076 151.825C791.797 151.779 791.502 151.756 791.191 151.756C790.448 151.756 789.785 151.911 789.202 152.223C788.625 152.528 788.168 152.952 787.83 153.496C787.498 154.033 787.333 154.646 787.333 155.335V165H784.986ZM809.921 149.727V151.716H802.006V149.727H809.921ZM804.313 146.068H806.66V160.625C806.66 161.288 806.756 161.785 806.948 162.116C807.147 162.441 807.399 162.66 807.704 162.773C808.015 162.879 808.344 162.932 808.688 162.932C808.947 162.932 809.159 162.919 809.325 162.892C809.49 162.859 809.623 162.832 809.722 162.812L810.2 164.92C810.04 164.98 809.818 165.04 809.533 165.099C809.248 165.166 808.887 165.199 808.45 165.199C807.787 165.199 807.137 165.056 806.501 164.771C805.871 164.486 805.347 164.052 804.93 163.469C804.519 162.885 804.313 162.15 804.313 161.261V146.068ZM816.126 155.812V165H813.779V144.636H816.126V152.114H816.325C816.683 151.325 817.219 150.698 817.935 150.234C818.658 149.764 819.619 149.528 820.819 149.528C821.86 149.528 822.771 149.737 823.553 150.155C824.335 150.566 824.942 151.199 825.373 152.054C825.81 152.902 826.029 153.983 826.029 155.295V165H823.683V155.455C823.683 154.241 823.368 153.304 822.738 152.641C822.115 151.971 821.25 151.636 820.143 151.636C819.374 151.636 818.684 151.799 818.075 152.124C817.471 152.448 816.994 152.922 816.643 153.545C816.298 154.169 816.126 154.924 816.126 155.812ZM830.322 165V149.727H832.669V165H830.322ZM831.515 147.182C831.058 147.182 830.663 147.026 830.332 146.714C830.007 146.403 829.845 146.028 829.845 145.591C829.845 145.153 830.007 144.779 830.332 144.467C830.663 144.156 831.058 144 831.515 144C831.973 144 832.364 144.156 832.689 144.467C833.02 144.779 833.186 145.153 833.186 145.591C833.186 146.028 833.02 146.403 832.689 146.714C832.364 147.026 831.973 147.182 831.515 147.182ZM836.967 165V149.727H839.234V152.034H839.393C839.671 151.278 840.175 150.665 840.904 150.195C841.633 149.724 842.455 149.489 843.37 149.489C843.542 149.489 843.758 149.492 844.016 149.499C844.275 149.505 844.47 149.515 844.603 149.528V151.915C844.523 151.895 844.341 151.865 844.056 151.825C843.778 151.779 843.483 151.756 843.171 151.756C842.429 151.756 841.766 151.911 841.183 152.223C840.606 152.528 840.148 152.952 839.81 153.496C839.479 154.033 839.313 154.646 839.313 155.335V165H836.967ZM852.687 165.318C851.414 165.318 850.29 164.997 849.316 164.354C848.342 163.704 847.579 162.789 847.029 161.609C846.479 160.423 846.204 159.021 846.204 157.403C846.204 155.799 846.479 154.407 847.029 153.227C847.579 152.047 848.345 151.136 849.326 150.493C850.307 149.85 851.441 149.528 852.727 149.528C853.721 149.528 854.506 149.694 855.083 150.026C855.666 150.35 856.111 150.722 856.416 151.139C856.727 151.55 856.969 151.888 857.141 152.153H857.34V144.636H859.687V165H857.42V162.653H857.141C856.969 162.932 856.724 163.283 856.406 163.707C856.087 164.125 855.633 164.5 855.043 164.831C854.453 165.156 853.668 165.318 852.687 165.318ZM853.005 163.21C853.946 163.21 854.742 162.965 855.391 162.474C856.041 161.977 856.535 161.291 856.873 160.416C857.211 159.535 857.38 158.517 857.38 157.364C857.38 156.223 857.214 155.226 856.883 154.371C856.551 153.509 856.061 152.839 855.411 152.362C854.762 151.878 853.96 151.636 853.005 151.636C852.011 151.636 851.182 151.892 850.519 152.402C849.863 152.906 849.369 153.592 849.038 154.46C848.713 155.322 848.55 156.29 848.55 157.364C848.55 158.451 848.716 159.438 849.048 160.327C849.386 161.208 849.883 161.911 850.539 162.435C851.202 162.952 852.024 163.21 853.005 163.21ZM873.06 155.176V157.364H864.151V155.176H873.06ZM877.189 170.727V149.727H879.456V152.153H879.735C879.907 151.888 880.146 151.55 880.451 151.139C880.762 150.722 881.206 150.35 881.783 150.026C882.366 149.694 883.155 149.528 884.15 149.528C885.436 149.528 886.569 149.85 887.55 150.493C888.531 151.136 889.297 152.047 889.847 153.227C890.397 154.407 890.672 155.799 890.672 157.403C890.672 159.021 890.397 160.423 889.847 161.609C889.297 162.789 888.534 163.704 887.56 164.354C886.586 164.997 885.462 165.318 884.189 165.318C883.208 165.318 882.423 165.156 881.833 164.831C881.243 164.5 880.789 164.125 880.471 163.707C880.152 163.283 879.907 162.932 879.735 162.653H879.536V170.727H877.189ZM879.496 157.364C879.496 158.517 879.665 159.535 880.003 160.416C880.341 161.291 880.835 161.977 881.485 162.474C882.134 162.965 882.93 163.21 883.871 163.21C884.852 163.21 885.671 162.952 886.327 162.435C886.99 161.911 887.487 161.208 887.819 160.327C888.157 159.438 888.326 158.451 888.326 157.364C888.326 156.29 888.16 155.322 887.828 154.46C887.504 153.592 887.01 152.906 886.347 152.402C885.691 151.892 884.865 151.636 883.871 151.636C882.917 151.636 882.114 151.878 881.465 152.362C880.815 152.839 880.325 153.509 879.993 154.371C879.662 155.226 879.496 156.223 879.496 157.364ZM898.746 165.358C897.778 165.358 896.9 165.176 896.111 164.811C895.322 164.44 894.696 163.906 894.232 163.21C893.768 162.508 893.536 161.659 893.536 160.665C893.536 159.79 893.708 159.08 894.053 158.537C894.398 157.987 894.858 157.556 895.435 157.244C896.012 156.933 896.648 156.701 897.344 156.548C898.047 156.389 898.753 156.263 899.462 156.17C900.39 156.051 901.142 155.962 901.719 155.902C902.302 155.836 902.727 155.726 902.992 155.574C903.264 155.421 903.4 155.156 903.4 154.778V154.699C903.4 153.718 903.131 152.955 902.594 152.412C902.064 151.868 901.258 151.597 900.178 151.597C899.058 151.597 898.179 151.842 897.543 152.332C896.907 152.823 896.459 153.347 896.201 153.903L893.973 153.108C894.371 152.18 894.901 151.457 895.564 150.94C896.234 150.417 896.963 150.052 897.752 149.847C898.547 149.634 899.329 149.528 900.098 149.528C900.589 149.528 901.152 149.588 901.789 149.707C902.432 149.82 903.052 150.055 903.648 150.413C904.251 150.771 904.752 151.312 905.15 152.034C905.547 152.757 905.746 153.724 905.746 154.938V165H903.4V162.932H903.28C903.121 163.263 902.856 163.618 902.485 163.996C902.114 164.374 901.62 164.695 901.003 164.96C900.387 165.225 899.634 165.358 898.746 165.358ZM899.104 163.25C900.032 163.25 900.814 163.068 901.451 162.703C902.094 162.339 902.578 161.868 902.902 161.291C903.234 160.714 903.4 160.108 903.4 159.472V157.324C903.3 157.443 903.081 157.553 902.743 157.652C902.412 157.745 902.027 157.828 901.59 157.901C901.159 157.967 900.738 158.027 900.327 158.08C899.923 158.126 899.595 158.166 899.343 158.199C898.733 158.278 898.163 158.408 897.632 158.587C897.109 158.759 896.685 159.021 896.36 159.372C896.042 159.717 895.882 160.187 895.882 160.784C895.882 161.599 896.184 162.216 896.787 162.634C897.397 163.045 898.169 163.25 899.104 163.25ZM910.029 165V149.727H912.296V152.034H912.455C912.734 151.278 913.237 150.665 913.967 150.195C914.696 149.724 915.518 149.489 916.433 149.489C916.605 149.489 916.82 149.492 917.079 149.499C917.337 149.505 917.533 149.515 917.666 149.528V151.915C917.586 151.895 917.404 151.865 917.119 151.825C916.84 151.779 916.545 151.756 916.234 151.756C915.491 151.756 914.828 151.911 914.245 152.223C913.668 152.528 913.211 152.952 912.873 153.496C912.541 154.033 912.376 154.646 912.376 155.335V165H910.029ZM928.046 149.727V151.716H920.131V149.727H928.046ZM922.438 146.068H924.785V160.625C924.785 161.288 924.881 161.785 925.073 162.116C925.272 162.441 925.524 162.66 925.829 162.773C926.14 162.879 926.469 162.932 926.813 162.932C927.072 162.932 927.284 162.919 927.45 162.892C927.615 162.859 927.748 162.832 927.847 162.812L928.325 164.92C928.165 164.98 927.943 165.04 927.658 165.099C927.373 165.166 927.012 165.199 926.575 165.199C925.912 165.199 925.262 165.056 924.626 164.771C923.996 164.486 923.472 164.052 923.055 163.469C922.644 162.885 922.438 162.15 922.438 161.261V146.068ZM933.087 170.727C932.69 170.727 932.335 170.694 932.023 170.628C931.712 170.568 931.496 170.509 931.377 170.449L931.974 168.381C932.544 168.527 933.048 168.58 933.485 168.54C933.923 168.5 934.31 168.304 934.648 167.953C934.993 167.608 935.308 167.048 935.593 166.273L936.031 165.08L930.383 149.727H932.928L937.144 161.898H937.303L941.519 149.727H944.065L937.582 167.227C937.29 168.016 936.929 168.669 936.498 169.186C936.067 169.71 935.567 170.098 934.996 170.349C934.433 170.601 933.797 170.727 933.087 170.727ZM959.531 165.358C958.563 165.358 957.685 165.176 956.896 164.811C956.107 164.44 955.481 163.906 955.017 163.21C954.553 162.508 954.321 161.659 954.321 160.665C954.321 159.79 954.493 159.08 954.838 158.537C955.183 157.987 955.643 157.556 956.22 157.244C956.797 156.933 957.433 156.701 958.129 156.548C958.832 156.389 959.538 156.263 960.247 156.17C961.175 156.051 961.928 155.962 962.504 155.902C963.088 155.836 963.512 155.726 963.777 155.574C964.049 155.421 964.185 155.156 964.185 154.778V154.699C964.185 153.718 963.916 152.955 963.379 152.412C962.849 151.868 962.044 151.597 960.963 151.597C959.843 151.597 958.965 151.842 958.328 152.332C957.692 152.823 957.244 153.347 956.986 153.903L954.759 153.108C955.156 152.18 955.687 151.457 956.349 150.94C957.019 150.417 957.748 150.052 958.537 149.847C959.332 149.634 960.115 149.528 960.884 149.528C961.374 149.528 961.938 149.588 962.574 149.707C963.217 149.82 963.837 150.055 964.433 150.413C965.036 150.771 965.537 151.312 965.935 152.034C966.332 152.757 966.531 153.724 966.531 154.938V165H964.185V162.932H964.065C963.906 163.263 963.641 163.618 963.27 163.996C962.899 164.374 962.405 164.695 961.788 164.96C961.172 165.225 960.42 165.358 959.531 165.358ZM959.889 163.25C960.817 163.25 961.599 163.068 962.236 162.703C962.879 162.339 963.363 161.868 963.688 161.291C964.019 160.714 964.185 160.108 964.185 159.472V157.324C964.085 157.443 963.866 157.553 963.528 157.652C963.197 157.745 962.813 157.828 962.375 157.901C961.944 157.967 961.523 158.027 961.112 158.08C960.708 158.126 960.38 158.166 960.128 158.199C959.518 158.278 958.948 158.408 958.418 158.587C957.894 158.759 957.47 159.021 957.145 159.372C956.827 159.717 956.668 160.187 956.668 160.784C956.668 161.599 956.969 162.216 957.572 162.634C958.182 163.045 958.955 163.25 959.889 163.25ZM970.814 170.727V149.727H973.081V152.153H973.36C973.532 151.888 973.771 151.55 974.076 151.139C974.387 150.722 974.831 150.35 975.408 150.026C975.991 149.694 976.78 149.528 977.775 149.528C979.061 149.528 980.194 149.85 981.175 150.493C982.156 151.136 982.922 152.047 983.472 153.227C984.022 154.407 984.297 155.799 984.297 157.403C984.297 159.021 984.022 160.423 983.472 161.609C982.922 162.789 982.159 163.704 981.185 164.354C980.211 164.997 979.087 165.318 977.814 165.318C976.833 165.318 976.048 165.156 975.458 164.831C974.868 164.5 974.414 164.125 974.096 163.707C973.777 163.283 973.532 162.932 973.36 162.653H973.161V170.727H970.814ZM973.121 157.364C973.121 158.517 973.29 159.535 973.628 160.416C973.966 161.291 974.46 161.977 975.11 162.474C975.759 162.965 976.555 163.21 977.496 163.21C978.477 163.21 979.296 162.952 979.952 162.435C980.615 161.911 981.112 161.208 981.444 160.327C981.782 159.438 981.951 158.451 981.951 157.364C981.951 156.29 981.785 155.322 981.453 154.46C981.129 153.592 980.635 152.906 979.972 152.402C979.316 151.892 978.49 151.636 977.496 151.636C976.542 151.636 975.739 151.878 975.09 152.362C974.44 152.839 973.95 153.509 973.618 154.371C973.287 155.226 973.121 156.223 973.121 157.364ZM987.877 170.727V149.727H990.144V152.153H990.422C990.595 151.888 990.833 151.55 991.138 151.139C991.45 150.722 991.894 150.35 992.471 150.026C993.054 149.694 993.843 149.528 994.837 149.528C996.123 149.528 997.257 149.85 998.238 150.493C999.219 151.136 999.984 152.047 1000.53 153.227C1001.08 154.407 1001.36 155.799 1001.36 157.403C1001.36 159.021 1001.08 160.423 1000.53 161.609C999.984 162.789 999.222 163.704 998.248 164.354C997.273 164.997 996.15 165.318 994.877 165.318C993.896 165.318 993.11 165.156 992.52 164.831C991.93 164.5 991.476 164.125 991.158 163.707C990.84 163.283 990.595 162.932 990.422 162.653H990.223V170.727H987.877ZM990.184 157.364C990.184 158.517 990.353 159.535 990.691 160.416C991.029 161.291 991.523 161.977 992.172 162.474C992.822 162.965 993.617 163.21 994.559 163.21C995.54 163.21 996.358 162.952 997.015 162.435C997.677 161.911 998.175 161.208 998.506 160.327C998.844 159.438 999.013 158.451 999.013 157.364C999.013 156.29 998.847 155.322 998.516 154.46C998.191 153.592 997.697 152.906 997.034 152.402C996.378 151.892 995.553 151.636 994.559 151.636C993.604 151.636 992.802 151.878 992.152 152.362C991.503 152.839 991.012 153.509 990.681 154.371C990.349 155.226 990.184 156.223 990.184 157.364ZM1007.29 144.636V165H1004.94V144.636H1007.29ZM1011.58 165V149.727H1013.93V165H1011.58ZM1012.78 147.182C1012.32 147.182 1011.93 147.026 1011.59 146.714C1011.27 146.403 1011.11 146.028 1011.11 145.591C1011.11 145.153 1011.27 144.779 1011.59 144.467C1011.93 144.156 1012.32 144 1012.78 144C1013.23 144 1013.63 144.156 1013.95 144.467C1014.28 144.779 1014.45 145.153 1014.45 145.591C1014.45 146.028 1014.28 146.403 1013.95 146.714C1013.63 147.026 1013.23 147.182 1012.78 147.182ZM1024.43 165.318C1023 165.318 1021.77 164.98 1020.73 164.304C1019.7 163.628 1018.9 162.696 1018.35 161.51C1017.79 160.323 1017.51 158.968 1017.51 157.443C1017.51 155.892 1017.8 154.523 1018.37 153.337C1018.94 152.143 1019.75 151.212 1020.77 150.543C1021.81 149.866 1023.01 149.528 1024.39 149.528C1025.47 149.528 1026.43 149.727 1027.3 150.125C1028.16 150.523 1028.86 151.08 1029.41 151.795C1029.96 152.511 1030.31 153.347 1030.44 154.301H1028.09C1027.91 153.605 1027.52 152.989 1026.9 152.452C1026.29 151.908 1025.47 151.636 1024.43 151.636C1023.52 151.636 1022.72 151.875 1022.03 152.352C1021.34 152.823 1020.81 153.489 1020.43 154.351C1020.05 155.206 1019.86 156.21 1019.86 157.364C1019.86 158.544 1020.04 159.571 1020.42 160.446C1020.79 161.321 1021.32 162 1022.01 162.484C1022.7 162.968 1023.5 163.21 1024.43 163.21C1025.04 163.21 1025.6 163.104 1026.09 162.892C1026.59 162.68 1027.01 162.375 1027.36 161.977C1027.7 161.58 1027.95 161.102 1028.09 160.545H1030.44C1030.31 161.447 1029.98 162.259 1029.45 162.982C1028.94 163.697 1028.25 164.268 1027.4 164.692C1026.55 165.109 1025.56 165.318 1024.43 165.318ZM1038.36 165.358C1037.4 165.358 1036.52 165.176 1035.73 164.811C1034.94 164.44 1034.31 163.906 1033.85 163.21C1033.39 162.508 1033.15 161.659 1033.15 160.665C1033.15 159.79 1033.33 159.08 1033.67 158.537C1034.01 157.987 1034.48 157.556 1035.05 157.244C1035.63 156.933 1036.27 156.701 1036.96 156.548C1037.66 156.389 1038.37 156.263 1039.08 156.17C1040.01 156.051 1040.76 155.962 1041.34 155.902C1041.92 155.836 1042.34 155.726 1042.61 155.574C1042.88 155.421 1043.02 155.156 1043.02 154.778V154.699C1043.02 153.718 1042.75 152.955 1042.21 152.412C1041.68 151.868 1040.88 151.597 1039.8 151.597C1038.67 151.597 1037.8 151.842 1037.16 152.332C1036.52 152.823 1036.08 153.347 1035.82 153.903L1033.59 153.108C1033.99 152.18 1034.52 151.457 1035.18 150.94C1035.85 150.417 1036.58 150.052 1037.37 149.847C1038.16 149.634 1038.95 149.528 1039.72 149.528C1040.21 149.528 1040.77 149.588 1041.41 149.707C1042.05 149.82 1042.67 150.055 1043.27 150.413C1043.87 150.771 1044.37 151.312 1044.77 152.034C1045.16 152.757 1045.36 153.724 1045.36 154.938V165H1043.02V162.932H1042.9C1042.74 163.263 1042.47 163.618 1042.1 163.996C1041.73 164.374 1041.24 164.695 1040.62 164.96C1040 165.225 1039.25 165.358 1038.36 165.358ZM1038.72 163.25C1039.65 163.25 1040.43 163.068 1041.07 162.703C1041.71 162.339 1042.19 161.868 1042.52 161.291C1042.85 160.714 1043.02 160.108 1043.02 159.472V157.324C1042.92 157.443 1042.7 157.553 1042.36 157.652C1042.03 157.745 1041.64 157.828 1041.21 157.901C1040.78 157.967 1040.36 158.027 1039.94 158.08C1039.54 158.126 1039.21 158.166 1038.96 158.199C1038.35 158.278 1037.78 158.408 1037.25 158.587C1036.73 158.759 1036.3 159.021 1035.98 159.372C1035.66 159.717 1035.5 160.187 1035.5 160.784C1035.5 161.599 1035.8 162.216 1036.4 162.634C1037.01 163.045 1037.79 163.25 1038.72 163.25ZM1056.29 149.727V151.716H1048.37V149.727H1056.29ZM1050.68 146.068H1053.03V160.625C1053.03 161.288 1053.12 161.785 1053.32 162.116C1053.51 162.441 1053.77 162.66 1054.07 162.773C1054.38 162.879 1054.71 162.932 1055.06 162.932C1055.31 162.932 1055.53 162.919 1055.69 162.892C1055.86 162.859 1055.99 162.832 1056.09 162.812L1056.57 164.92C1056.41 164.98 1056.19 165.04 1055.9 165.099C1055.62 165.166 1055.25 165.199 1054.82 165.199C1054.15 165.199 1053.5 165.056 1052.87 164.771C1052.24 164.486 1051.71 164.052 1051.3 163.469C1050.89 162.885 1050.68 162.15 1050.68 161.261V146.068ZM1059.82 165V149.727H1062.16V165H1059.82ZM1061.01 147.182C1060.55 147.182 1060.16 147.026 1059.83 146.714C1059.5 146.403 1059.34 146.028 1059.34 145.591C1059.34 145.153 1059.5 144.779 1059.83 144.467C1060.16 144.156 1060.55 144 1061.01 144C1061.47 144 1061.86 144.156 1062.18 144.467C1062.52 144.779 1062.68 145.153 1062.68 145.591C1062.68 146.028 1062.52 146.403 1062.18 146.714C1061.86 147.026 1061.47 147.182 1061.01 147.182ZM1072.67 165.318C1071.29 165.318 1070.08 164.99 1069.04 164.334C1068 163.678 1067.2 162.759 1066.61 161.58C1066.04 160.4 1065.75 159.021 1065.75 157.443C1065.75 155.852 1066.04 154.464 1066.61 153.277C1067.2 152.09 1068 151.169 1069.04 150.513C1070.08 149.857 1071.29 149.528 1072.67 149.528C1074.05 149.528 1075.25 149.857 1076.29 150.513C1077.33 151.169 1078.14 152.09 1078.71 153.277C1079.3 154.464 1079.59 155.852 1079.59 157.443C1079.59 159.021 1079.3 160.4 1078.71 161.58C1078.14 162.759 1077.33 163.678 1076.29 164.334C1075.25 164.99 1074.05 165.318 1072.67 165.318ZM1072.67 163.21C1073.71 163.21 1074.58 162.942 1075.25 162.405C1075.93 161.868 1076.43 161.162 1076.75 160.287C1077.08 159.412 1077.24 158.464 1077.24 157.443C1077.24 156.422 1077.08 155.471 1076.75 154.589C1076.43 153.708 1075.93 152.995 1075.25 152.452C1074.58 151.908 1073.71 151.636 1072.67 151.636C1071.62 151.636 1070.76 151.908 1070.08 152.452C1069.41 152.995 1068.91 153.708 1068.58 154.589C1068.26 155.471 1068.09 156.422 1068.09 157.443C1068.09 158.464 1068.26 159.412 1068.58 160.287C1068.91 161.162 1069.41 161.868 1070.08 162.405C1070.76 162.942 1071.62 163.21 1072.67 163.21ZM1085.52 155.812V165H1083.17V149.727H1085.44V152.114H1085.64C1085.99 151.338 1086.54 150.715 1087.27 150.244C1088 149.767 1088.94 149.528 1090.09 149.528C1091.12 149.528 1092.03 149.741 1092.8 150.165C1093.58 150.582 1094.18 151.219 1094.61 152.074C1095.05 152.922 1095.26 153.996 1095.26 155.295V165H1092.91V155.455C1092.91 154.255 1092.6 153.32 1091.98 152.651C1091.36 151.974 1090.5 151.636 1089.41 151.636C1088.67 151.636 1088 151.799 1087.41 152.124C1086.82 152.448 1086.36 152.922 1086.02 153.545C1085.69 154.169 1085.52 154.924 1085.52 155.812ZM1110.37 153.148L1108.26 153.744C1108.13 153.393 1107.93 153.052 1107.67 152.72C1107.42 152.382 1107.08 152.104 1106.64 151.885C1106.2 151.666 1105.64 151.557 1104.96 151.557C1104.02 151.557 1103.24 151.772 1102.62 152.203C1102 152.627 1101.7 153.168 1101.7 153.824C1101.7 154.407 1101.91 154.868 1102.33 155.206C1102.76 155.544 1103.42 155.826 1104.32 156.051L1106.59 156.608C1107.95 156.939 1108.97 157.446 1109.64 158.129C1110.31 158.805 1110.65 159.677 1110.65 160.744C1110.65 161.619 1110.39 162.402 1109.89 163.091C1109.39 163.78 1108.7 164.324 1107.8 164.722C1106.91 165.119 1105.87 165.318 1104.68 165.318C1103.12 165.318 1101.83 164.98 1100.81 164.304C1099.79 163.628 1099.14 162.64 1098.87 161.341L1101.1 160.784C1101.31 161.606 1101.71 162.223 1102.3 162.634C1102.9 163.045 1103.68 163.25 1104.64 163.25C1105.73 163.25 1106.6 163.018 1107.24 162.554C1107.89 162.083 1108.22 161.52 1108.22 160.864C1108.22 160.333 1108.03 159.889 1107.66 159.531C1107.29 159.167 1106.72 158.895 1105.95 158.716L1103.41 158.119C1102.01 157.788 1100.98 157.274 1100.32 156.578C1099.67 155.875 1099.35 154.997 1099.35 153.943C1099.35 153.081 1099.59 152.319 1100.08 151.656C1100.57 150.993 1101.23 150.473 1102.07 150.095C1102.92 149.717 1103.88 149.528 1104.96 149.528C1106.47 149.528 1107.66 149.86 1108.52 150.523C1109.39 151.186 1110 152.061 1110.37 153.148ZM1128.26 165.318C1126.88 165.318 1125.67 164.99 1124.63 164.334C1123.59 163.678 1122.79 162.759 1122.2 161.58C1121.63 160.4 1121.34 159.021 1121.34 157.443C1121.34 155.852 1121.63 154.464 1122.2 153.277C1122.79 152.09 1123.59 151.169 1124.63 150.513C1125.67 149.857 1126.88 149.528 1128.26 149.528C1129.64 149.528 1130.84 149.857 1131.88 150.513C1132.92 151.169 1133.73 152.09 1134.3 153.277C1134.89 154.464 1135.18 155.852 1135.18 157.443C1135.18 159.021 1134.89 160.4 1134.3 161.58C1133.73 162.759 1132.92 163.678 1131.88 164.334C1130.84 164.99 1129.64 165.318 1128.26 165.318ZM1128.26 163.21C1129.3 163.21 1130.17 162.942 1130.84 162.405C1131.52 161.868 1132.02 161.162 1132.34 160.287C1132.67 159.412 1132.83 158.464 1132.83 157.443C1132.83 156.422 1132.67 155.471 1132.34 154.589C1132.02 153.708 1131.52 152.995 1130.84 152.452C1130.17 151.908 1129.3 151.636 1128.26 151.636C1127.21 151.636 1126.35 151.908 1125.67 152.452C1125 152.995 1124.5 153.708 1124.17 154.589C1123.85 155.471 1123.68 156.422 1123.68 157.443C1123.68 158.464 1123.85 159.412 1124.17 160.287C1124.5 161.162 1125 161.868 1125.67 162.405C1126.35 162.942 1127.21 163.21 1128.26 163.21ZM1141.11 155.812V165H1138.76V149.727H1141.03V152.114H1141.23C1141.58 151.338 1142.13 150.715 1142.86 150.244C1143.59 149.767 1144.53 149.528 1145.68 149.528C1146.71 149.528 1147.62 149.741 1148.39 150.165C1149.17 150.582 1149.77 151.219 1150.2 152.074C1150.64 152.922 1150.85 153.996 1150.85 155.295V165H1148.5V155.455C1148.5 154.255 1148.19 153.32 1147.57 152.651C1146.95 151.974 1146.09 151.636 1145 151.636C1144.25 151.636 1143.59 151.799 1143 152.124C1142.41 152.448 1141.95 152.922 1141.61 153.545C1141.28 154.169 1141.11 154.924 1141.11 155.812ZM1168.78 165.318C1167.51 165.318 1166.38 164.997 1165.41 164.354C1164.44 163.704 1163.67 162.789 1163.12 161.609C1162.57 160.423 1162.3 159.021 1162.3 157.403C1162.3 155.799 1162.57 154.407 1163.12 153.227C1163.67 152.047 1164.44 151.136 1165.42 150.493C1166.4 149.85 1167.53 149.528 1168.82 149.528C1169.81 149.528 1170.6 149.694 1171.18 150.026C1171.76 150.35 1172.2 150.722 1172.51 151.139C1172.82 151.55 1173.06 151.888 1173.24 152.153H1173.43V144.636H1175.78V165H1173.51V162.653H1173.24C1173.06 162.932 1172.82 163.283 1172.5 163.707C1172.18 164.125 1171.73 164.5 1171.14 164.831C1170.55 165.156 1169.76 165.318 1168.78 165.318ZM1169.1 163.21C1170.04 163.21 1170.84 162.965 1171.49 162.474C1172.13 161.977 1172.63 161.291 1172.97 160.416C1173.3 159.535 1173.47 158.517 1173.47 157.364C1173.47 156.223 1173.31 155.226 1172.98 154.371C1172.65 153.509 1172.15 152.839 1171.5 152.362C1170.86 151.878 1170.05 151.636 1169.1 151.636C1168.1 151.636 1167.28 151.892 1166.61 152.402C1165.96 152.906 1165.46 153.592 1165.13 154.46C1164.81 155.322 1164.64 156.29 1164.64 157.364C1164.64 158.451 1164.81 159.438 1165.14 160.327C1165.48 161.208 1165.98 161.911 1166.63 162.435C1167.3 162.952 1168.12 163.21 1169.1 163.21ZM1184.9 165.358C1183.93 165.358 1183.05 165.176 1182.26 164.811C1181.47 164.44 1180.85 163.906 1180.38 163.21C1179.92 162.508 1179.69 161.659 1179.69 160.665C1179.69 159.79 1179.86 159.08 1180.21 158.537C1180.55 157.987 1181.01 157.556 1181.59 157.244C1182.16 156.933 1182.8 156.701 1183.5 156.548C1184.2 156.389 1184.91 156.263 1185.61 156.17C1186.54 156.051 1187.29 155.962 1187.87 155.902C1188.45 155.836 1188.88 155.726 1189.14 155.574C1189.42 155.421 1189.55 155.156 1189.55 154.778V154.699C1189.55 153.718 1189.28 152.955 1188.75 152.412C1188.22 151.868 1187.41 151.597 1186.33 151.597C1185.21 151.597 1184.33 151.842 1183.7 152.332C1183.06 152.823 1182.61 153.347 1182.35 153.903L1180.13 153.108C1180.52 152.18 1181.05 151.457 1181.72 150.94C1182.39 150.417 1183.12 150.052 1183.9 149.847C1184.7 149.634 1185.48 149.528 1186.25 149.528C1186.74 149.528 1187.3 149.588 1187.94 149.707C1188.58 149.82 1189.2 150.055 1189.8 150.413C1190.4 150.771 1190.9 151.312 1191.3 152.034C1191.7 152.757 1191.9 153.724 1191.9 154.938V165H1189.55V162.932H1189.43C1189.27 163.263 1189.01 163.618 1188.64 163.996C1188.27 164.374 1187.77 164.695 1187.16 164.96C1186.54 165.225 1185.79 165.358 1184.9 165.358ZM1185.26 163.25C1186.18 163.25 1186.97 163.068 1187.6 162.703C1188.25 162.339 1188.73 161.868 1189.05 161.291C1189.39 160.714 1189.55 160.108 1189.55 159.472V157.324C1189.45 157.443 1189.23 157.553 1188.9 157.652C1188.56 157.745 1188.18 157.828 1187.74 157.901C1187.31 157.967 1186.89 158.027 1186.48 158.08C1186.08 158.126 1185.75 158.166 1185.5 158.199C1184.89 158.278 1184.32 158.408 1183.78 158.587C1183.26 158.759 1182.84 159.021 1182.51 159.372C1182.19 159.717 1182.03 160.187 1182.03 160.784C1182.03 161.599 1182.34 162.216 1182.94 162.634C1183.55 163.045 1184.32 163.25 1185.26 163.25ZM1198.53 155.812V165H1196.18V144.636H1198.53V152.114H1198.73C1199.08 151.325 1199.62 150.698 1200.34 150.234C1201.06 149.764 1202.02 149.528 1203.22 149.528C1204.26 149.528 1205.17 149.737 1205.96 150.155C1206.74 150.566 1207.34 151.199 1207.78 152.054C1208.21 152.902 1208.43 153.983 1208.43 155.295V165H1206.08V155.455C1206.08 154.241 1205.77 153.304 1205.14 152.641C1204.52 151.971 1203.65 151.636 1202.55 151.636C1201.78 151.636 1201.09 151.799 1200.48 152.124C1199.87 152.448 1199.4 152.922 1199.05 153.545C1198.7 154.169 1198.53 154.924 1198.53 155.812ZM1215.07 144.636V165H1212.72V144.636H1215.07ZM1219.37 165V149.727H1221.72V165H1219.37ZM1220.56 147.182C1220.1 147.182 1219.71 147.026 1219.38 146.714C1219.05 146.403 1218.89 146.028 1218.89 145.591C1218.89 145.153 1219.05 144.779 1219.38 144.467C1219.71 144.156 1220.1 144 1220.56 144C1221.02 144 1221.41 144.156 1221.74 144.467C1222.07 144.779 1222.23 145.153 1222.23 145.591C1222.23 146.028 1222.07 146.403 1221.74 146.714C1221.41 147.026 1221.02 147.182 1220.56 147.182ZM1230.51 165.358C1229.54 165.358 1228.66 165.176 1227.87 164.811C1227.08 164.44 1226.46 163.906 1225.99 163.21C1225.53 162.508 1225.3 161.659 1225.3 160.665C1225.3 159.79 1225.47 159.08 1225.81 158.537C1226.16 157.987 1226.62 157.556 1227.2 157.244C1227.77 156.933 1228.41 156.701 1229.11 156.548C1229.81 156.389 1230.51 156.263 1231.22 156.17C1232.15 156.051 1232.9 155.962 1233.48 155.902C1234.06 155.836 1234.49 155.726 1234.75 155.574C1235.03 155.421 1235.16 155.156 1235.16 154.778V154.699C1235.16 153.718 1234.89 152.955 1234.36 152.412C1233.83 151.868 1233.02 151.597 1231.94 151.597C1230.82 151.597 1229.94 151.842 1229.3 152.332C1228.67 152.823 1228.22 153.347 1227.96 153.903L1225.74 153.108C1226.13 152.18 1226.66 151.457 1227.33 150.94C1228 150.417 1228.72 150.052 1229.51 149.847C1230.31 149.634 1231.09 149.528 1231.86 149.528C1232.35 149.528 1232.91 149.588 1233.55 149.707C1234.19 149.82 1234.81 150.055 1235.41 150.413C1236.01 150.771 1236.51 151.312 1236.91 152.034C1237.31 152.757 1237.51 153.724 1237.51 154.938V165H1235.16V162.932H1235.04C1234.88 163.263 1234.62 163.618 1234.25 163.996C1233.88 164.374 1233.38 164.695 1232.76 164.96C1232.15 165.225 1231.4 165.358 1230.51 165.358ZM1230.87 163.25C1231.79 163.25 1232.58 163.068 1233.21 162.703C1233.86 162.339 1234.34 161.868 1234.66 161.291C1235 160.714 1235.16 160.108 1235.16 159.472V157.324C1235.06 157.443 1234.84 157.553 1234.5 157.652C1234.17 157.745 1233.79 157.828 1233.35 157.901C1232.92 157.967 1232.5 158.027 1232.09 158.08C1231.68 158.126 1231.36 158.166 1231.1 158.199C1230.49 158.278 1229.92 158.408 1229.39 158.587C1228.87 158.759 1228.45 159.021 1228.12 159.372C1227.8 159.717 1227.64 160.187 1227.64 160.784C1227.64 161.599 1227.95 162.216 1228.55 162.634C1229.16 163.045 1229.93 163.25 1230.87 163.25ZM1259.29 154.818C1259.29 156.966 1258.9 158.822 1258.13 160.386C1257.35 161.951 1256.29 163.157 1254.94 164.006C1253.58 164.854 1252.04 165.278 1250.3 165.278C1248.57 165.278 1247.02 164.854 1245.67 164.006C1244.32 163.157 1243.25 161.951 1242.48 160.386C1241.7 158.822 1241.31 156.966 1241.31 154.818C1241.31 152.67 1241.7 150.814 1242.48 149.25C1243.25 147.686 1244.32 146.479 1245.67 145.631C1247.02 144.782 1248.57 144.358 1250.3 144.358C1252.04 144.358 1253.58 144.782 1254.94 145.631C1256.29 146.479 1257.35 147.686 1258.13 149.25C1258.9 150.814 1259.29 152.67 1259.29 154.818ZM1256.9 154.818C1256.9 153.055 1256.61 151.567 1256.02 150.354C1255.44 149.141 1254.64 148.223 1253.64 147.599C1252.65 146.976 1251.54 146.665 1250.3 146.665C1249.07 146.665 1247.95 146.976 1246.95 147.599C1245.96 148.223 1245.16 149.141 1244.57 150.354C1243.99 151.567 1243.7 153.055 1243.7 154.818C1243.7 156.581 1243.99 158.07 1244.57 159.283C1245.16 160.496 1245.96 161.414 1246.95 162.037C1247.95 162.66 1249.07 162.972 1250.3 162.972C1251.54 162.972 1252.65 162.66 1253.64 162.037C1254.64 161.414 1255.44 160.496 1256.02 159.283C1256.61 158.07 1256.9 156.581 1256.9 154.818ZM1274.57 149.727C1274.45 148.72 1273.97 147.938 1273.12 147.381C1272.27 146.824 1271.23 146.545 1270 146.545C1269.1 146.545 1268.31 146.691 1267.63 146.983C1266.96 147.275 1266.44 147.676 1266.06 148.186C1265.69 148.696 1265.51 149.277 1265.51 149.926C1265.51 150.47 1265.63 150.937 1265.89 151.328C1266.16 151.713 1266.5 152.034 1266.91 152.293C1267.32 152.545 1267.75 152.753 1268.2 152.919C1268.65 153.078 1269.07 153.207 1269.44 153.307L1271.51 153.864C1272.04 154.003 1272.63 154.195 1273.28 154.44C1273.94 154.686 1274.56 155.02 1275.16 155.445C1275.76 155.862 1276.26 156.399 1276.65 157.055C1277.04 157.712 1277.24 158.517 1277.24 159.472C1277.24 160.572 1276.95 161.566 1276.37 162.455C1275.8 163.343 1274.97 164.049 1273.87 164.572C1272.77 165.096 1271.44 165.358 1269.88 165.358C1268.42 165.358 1267.16 165.123 1266.09 164.652C1265.03 164.181 1264.2 163.525 1263.59 162.683C1262.98 161.841 1262.64 160.864 1262.56 159.75H1265.11C1265.17 160.519 1265.43 161.155 1265.88 161.659C1266.34 162.156 1266.92 162.527 1267.61 162.773C1268.32 163.011 1269.07 163.131 1269.88 163.131C1270.82 163.131 1271.67 162.978 1272.42 162.673C1273.16 162.362 1273.76 161.931 1274.2 161.381C1274.63 160.824 1274.85 160.174 1274.85 159.432C1274.85 158.756 1274.66 158.205 1274.29 157.781C1273.91 157.357 1273.41 157.012 1272.79 156.747C1272.18 156.482 1271.51 156.25 1270.8 156.051L1268.29 155.335C1266.7 154.878 1265.44 154.225 1264.51 153.376C1263.58 152.528 1263.12 151.418 1263.12 150.045C1263.12 148.905 1263.43 147.911 1264.04 147.062C1264.67 146.207 1265.5 145.545 1266.55 145.074C1267.6 144.597 1268.78 144.358 1270.08 144.358C1271.39 144.358 1272.56 144.593 1273.58 145.064C1274.6 145.528 1275.41 146.164 1276.01 146.973C1276.61 147.782 1276.93 148.7 1276.96 149.727H1274.57ZM1282.68 165.159C1282.19 165.159 1281.77 164.983 1281.42 164.632C1281.07 164.281 1280.89 163.86 1280.89 163.369C1280.89 162.879 1281.07 162.458 1281.42 162.107C1281.77 161.755 1282.19 161.58 1282.68 161.58C1283.18 161.58 1283.6 161.755 1283.95 162.107C1284.3 162.458 1284.47 162.879 1284.47 163.369C1284.47 163.694 1284.39 163.992 1284.23 164.264C1284.07 164.536 1283.85 164.755 1283.58 164.92C1283.31 165.08 1283.02 165.159 1282.68 165.159Z" fill="black" fill-opacity="0.5"/>
<path d="M477.531 208L471.962 187.636H474.468L478.724 204.222H478.923L483.258 187.636H486.042L490.377 204.222H490.576L494.832 187.636H497.337L491.769 208H489.224L484.729 191.773H484.57L480.076 208H477.531ZM499.135 208V192.727H501.402V195.034H501.561C501.839 194.278 502.343 193.665 503.072 193.195C503.801 192.724 504.623 192.489 505.538 192.489C505.71 192.489 505.926 192.492 506.184 192.499C506.443 192.505 506.638 192.515 506.771 192.528V194.915C506.691 194.895 506.509 194.865 506.224 194.825C505.946 194.779 505.651 194.756 505.339 194.756C504.597 194.756 503.934 194.911 503.351 195.223C502.774 195.528 502.316 195.952 501.978 196.496C501.647 197.033 501.481 197.646 501.481 198.335V208H499.135ZM509.553 208V192.727H511.899V208H509.553ZM510.746 190.182C510.288 190.182 509.894 190.026 509.563 189.714C509.238 189.403 509.075 189.028 509.075 188.591C509.075 188.153 509.238 187.779 509.563 187.467C509.894 187.156 510.288 187 510.746 187C511.203 187 511.594 187.156 511.919 187.467C512.25 187.779 512.416 188.153 512.416 188.591C512.416 189.028 512.25 189.403 511.919 189.714C511.594 190.026 511.203 190.182 510.746 190.182ZM522.839 192.727V194.716H514.924V192.727H522.839ZM517.231 189.068H519.578V203.625C519.578 204.288 519.674 204.785 519.866 205.116C520.065 205.441 520.317 205.66 520.622 205.773C520.933 205.879 521.261 205.932 521.606 205.932C521.865 205.932 522.077 205.919 522.243 205.892C522.408 205.859 522.541 205.832 522.64 205.812L523.118 207.92C522.958 207.98 522.736 208.04 522.451 208.099C522.166 208.166 521.805 208.199 521.368 208.199C520.705 208.199 520.055 208.056 519.419 207.771C518.789 207.486 518.265 207.052 517.848 206.469C517.437 205.885 517.231 205.15 517.231 204.261V189.068ZM533.011 192.727V194.716H525.096V192.727H533.011ZM527.403 189.068H529.75V203.625C529.75 204.288 529.846 204.785 530.038 205.116C530.237 205.441 530.489 205.66 530.794 205.773C531.105 205.879 531.433 205.932 531.778 205.932C532.037 205.932 532.249 205.919 532.414 205.892C532.58 205.859 532.713 205.832 532.812 205.812L533.289 207.92C533.13 207.98 532.908 208.04 532.623 208.099C532.338 208.166 531.977 208.199 531.539 208.199C530.877 208.199 530.227 208.056 529.591 207.771C528.961 207.486 528.437 207.052 528.02 206.469C527.609 205.885 527.403 205.15 527.403 204.261V189.068ZM542.78 208.318C541.309 208.318 540.039 207.993 538.972 207.344C537.911 206.688 537.093 205.773 536.516 204.599C535.946 203.42 535.661 202.047 535.661 200.483C535.661 198.919 535.946 197.54 536.516 196.347C537.093 195.147 537.895 194.212 538.922 193.543C539.956 192.866 541.163 192.528 542.542 192.528C543.337 192.528 544.123 192.661 544.898 192.926C545.674 193.191 546.38 193.622 547.016 194.219C547.652 194.809 548.159 195.591 548.537 196.565C548.915 197.54 549.104 198.74 549.104 200.165V201.159H537.331V199.131H546.718C546.718 198.269 546.545 197.5 546.201 196.824C545.863 196.148 545.379 195.614 544.749 195.223C544.126 194.832 543.39 194.636 542.542 194.636C541.607 194.636 540.798 194.868 540.115 195.332C539.439 195.79 538.919 196.386 538.554 197.122C538.19 197.858 538.007 198.647 538.007 199.489V200.841C538.007 201.994 538.206 202.972 538.604 203.774C539.008 204.57 539.569 205.176 540.284 205.594C541 206.005 541.832 206.21 542.78 206.21C543.397 206.21 543.953 206.124 544.451 205.952C544.954 205.773 545.389 205.508 545.753 205.156C546.118 204.798 546.4 204.354 546.598 203.824L548.865 204.46C548.627 205.229 548.226 205.905 547.662 206.489C547.099 207.065 546.403 207.516 545.574 207.841C544.746 208.159 543.814 208.318 542.78 208.318ZM555.02 198.812V208H552.674V192.727H554.941V195.114H555.14C555.498 194.338 556.041 193.715 556.77 193.244C557.499 192.767 558.441 192.528 559.594 192.528C560.628 192.528 561.533 192.741 562.309 193.165C563.084 193.582 563.687 194.219 564.118 195.074C564.549 195.922 564.765 196.996 564.765 198.295V208H562.418V198.455C562.418 197.255 562.106 196.32 561.483 195.651C560.86 194.974 560.005 194.636 558.918 194.636C558.169 194.636 557.499 194.799 556.909 195.124C556.326 195.448 555.865 195.922 555.527 196.545C555.189 197.169 555.02 197.924 555.02 198.812ZM576.928 208V192.727H579.274V208H576.928ZM578.121 190.182C577.663 190.182 577.269 190.026 576.938 189.714C576.613 189.403 576.45 189.028 576.45 188.591C576.45 188.153 576.613 187.779 576.938 187.467C577.269 187.156 577.663 187 578.121 187C578.578 187 578.969 187.156 579.294 187.467C579.625 187.779 579.791 188.153 579.791 188.591C579.791 189.028 579.625 189.403 579.294 189.714C578.969 190.026 578.578 190.182 578.121 190.182ZM585.919 198.812V208H583.572V192.727H585.839V195.114H586.038C586.396 194.338 586.94 193.715 587.669 193.244C588.398 192.767 589.339 192.528 590.493 192.528C591.527 192.528 592.431 192.741 593.207 193.165C593.983 193.582 594.586 194.219 595.017 195.074C595.448 195.922 595.663 196.996 595.663 198.295V208H593.316V198.455C593.316 197.255 593.005 196.32 592.382 195.651C591.759 194.974 590.904 194.636 589.816 194.636C589.067 194.636 588.398 194.799 587.808 195.124C587.225 195.448 586.764 195.922 586.426 196.545C586.088 197.169 585.919 197.924 585.919 198.812ZM614.428 208H608.144V187.636H614.707C616.682 187.636 618.372 188.044 619.778 188.859C621.183 189.668 622.26 190.831 623.009 192.349C623.758 193.861 624.133 195.67 624.133 197.778C624.133 199.9 623.755 201.726 622.999 203.257C622.244 204.782 621.143 205.955 619.698 206.777C618.253 207.592 616.496 208 614.428 208ZM610.61 205.812H614.269C615.953 205.812 617.348 205.488 618.455 204.838C619.562 204.188 620.388 203.264 620.931 202.064C621.475 200.864 621.746 199.436 621.746 197.778C621.746 196.134 621.478 194.719 620.941 193.533C620.404 192.339 619.602 191.425 618.535 190.788C617.468 190.145 616.139 189.824 614.548 189.824H610.61V205.812ZM632.445 208.358C631.478 208.358 630.599 208.176 629.81 207.811C629.022 207.44 628.395 206.906 627.931 206.21C627.467 205.508 627.235 204.659 627.235 203.665C627.235 202.79 627.407 202.08 627.752 201.537C628.097 200.987 628.558 200.556 629.134 200.244C629.711 199.933 630.347 199.701 631.043 199.548C631.746 199.389 632.452 199.263 633.161 199.17C634.089 199.051 634.842 198.962 635.418 198.902C636.002 198.836 636.426 198.726 636.691 198.574C636.963 198.421 637.099 198.156 637.099 197.778V197.699C637.099 196.718 636.83 195.955 636.293 195.412C635.763 194.868 634.958 194.597 633.877 194.597C632.757 194.597 631.879 194.842 631.242 195.332C630.606 195.823 630.158 196.347 629.9 196.903L627.673 196.108C628.07 195.18 628.601 194.457 629.264 193.94C629.933 193.417 630.662 193.052 631.451 192.847C632.246 192.634 633.029 192.528 633.798 192.528C634.288 192.528 634.852 192.588 635.488 192.707C636.131 192.82 636.751 193.055 637.347 193.413C637.951 193.771 638.451 194.312 638.849 195.034C639.246 195.757 639.445 196.724 639.445 197.938V208H637.099V205.932H636.979C636.82 206.263 636.555 206.618 636.184 206.996C635.813 207.374 635.319 207.695 634.702 207.96C634.086 208.225 633.334 208.358 632.445 208.358ZM632.803 206.25C633.731 206.25 634.514 206.068 635.15 205.703C635.793 205.339 636.277 204.868 636.602 204.291C636.933 203.714 637.099 203.108 637.099 202.472V200.324C636.999 200.443 636.781 200.553 636.442 200.652C636.111 200.745 635.727 200.828 635.289 200.901C634.858 200.967 634.437 201.027 634.026 201.08C633.622 201.126 633.294 201.166 633.042 201.199C632.432 201.278 631.862 201.408 631.332 201.587C630.808 201.759 630.384 202.021 630.059 202.372C629.741 202.717 629.582 203.187 629.582 203.784C629.582 204.599 629.883 205.216 630.487 205.634C631.096 206.045 631.869 206.25 632.803 206.25ZM643.728 208V192.727H645.995V195.034H646.154C646.433 194.278 646.937 193.665 647.666 193.195C648.395 192.724 649.217 192.489 650.132 192.489C650.304 192.489 650.52 192.492 650.778 192.499C651.037 192.505 651.232 192.515 651.365 192.528V194.915C651.285 194.895 651.103 194.865 650.818 194.825C650.539 194.779 650.244 194.756 649.933 194.756C649.19 194.756 648.528 194.911 647.944 195.223C647.368 195.528 646.91 195.952 646.572 196.496C646.241 197.033 646.075 197.646 646.075 198.335V208H643.728ZM661.745 192.727V194.716H653.831V192.727H661.745ZM656.137 189.068H658.484V203.625C658.484 204.288 658.58 204.785 658.772 205.116C658.971 205.441 659.223 205.66 659.528 205.773C659.84 205.879 660.168 205.932 660.512 205.932C660.771 205.932 660.983 205.919 661.149 205.892C661.315 205.859 661.447 205.832 661.547 205.812L662.024 207.92C661.865 207.98 661.643 208.04 661.358 208.099C661.073 208.166 660.711 208.199 660.274 208.199C659.611 208.199 658.961 208.056 658.325 207.771C657.695 207.486 657.172 207.052 656.754 206.469C656.343 205.885 656.137 205.15 656.137 204.261V189.068ZM672.474 186.682L665.912 211.062H663.764L670.326 186.682H672.474ZM675.574 208V187.636H687.784V189.824H678.04V196.705H686.869V198.892H678.04V208H675.574ZM694.036 187.636V208H691.689V187.636H694.036ZM707.959 201.756V192.727H710.305V208H707.959V205.415H707.8C707.442 206.19 706.885 206.85 706.129 207.393C705.374 207.93 704.419 208.199 703.266 208.199C702.311 208.199 701.463 207.99 700.72 207.572C699.978 207.148 699.394 206.512 698.97 205.663C698.546 204.808 698.334 203.731 698.334 202.432V192.727H700.68V202.273C700.68 203.386 700.992 204.275 701.615 204.938C702.245 205.6 703.047 205.932 704.021 205.932C704.605 205.932 705.198 205.783 705.801 205.484C706.411 205.186 706.921 204.729 707.332 204.112C707.75 203.496 707.959 202.71 707.959 201.756ZM721.245 192.727V194.716H713.331V192.727H721.245ZM715.637 189.068H717.984V203.625C717.984 204.288 718.08 204.785 718.272 205.116C718.471 205.441 718.723 205.66 719.028 205.773C719.34 205.879 719.668 205.932 720.012 205.932C720.271 205.932 720.483 205.919 720.649 205.892C720.815 205.859 720.947 205.832 721.047 205.812L721.524 207.92C721.365 207.98 721.143 208.04 720.858 208.099C720.573 208.166 720.211 208.199 719.774 208.199C719.111 208.199 718.461 208.056 717.825 207.771C717.195 207.486 716.672 207.052 716.254 206.469C715.843 205.885 715.637 205.15 715.637 204.261V189.068ZM731.417 192.727V194.716H723.503V192.727H731.417ZM725.809 189.068H728.156V203.625C728.156 204.288 728.252 204.785 728.444 205.116C728.643 205.441 728.895 205.66 729.2 205.773C729.511 205.879 729.84 205.932 730.184 205.932C730.443 205.932 730.655 205.919 730.821 205.892C730.986 205.859 731.119 205.832 731.218 205.812L731.696 207.92C731.537 207.98 731.315 208.04 731.029 208.099C730.744 208.166 730.383 208.199 729.946 208.199C729.283 208.199 728.633 208.056 727.997 207.771C727.367 207.486 726.843 207.052 726.426 206.469C726.015 205.885 725.809 205.15 725.809 204.261V189.068ZM741.186 208.318C739.715 208.318 738.445 207.993 737.378 207.344C736.318 206.688 735.499 205.773 734.922 204.599C734.352 203.42 734.067 202.047 734.067 200.483C734.067 198.919 734.352 197.54 734.922 196.347C735.499 195.147 736.301 194.212 737.328 193.543C738.363 192.866 739.569 192.528 740.948 192.528C741.743 192.528 742.529 192.661 743.304 192.926C744.08 193.191 744.786 193.622 745.422 194.219C746.059 194.809 746.566 195.591 746.944 196.565C747.321 197.54 747.51 198.74 747.51 200.165V201.159H735.738V199.131H745.124C745.124 198.269 744.952 197.5 744.607 196.824C744.269 196.148 743.785 195.614 743.155 195.223C742.532 194.832 741.796 194.636 740.948 194.636C740.013 194.636 739.204 194.868 738.522 195.332C737.846 195.79 737.325 196.386 736.961 197.122C736.596 197.858 736.414 198.647 736.414 199.489V200.841C736.414 201.994 736.613 202.972 737.01 203.774C737.415 204.57 737.975 205.176 738.691 205.594C739.407 206.005 740.239 206.21 741.186 206.21C741.803 206.21 742.36 206.124 742.857 205.952C743.361 205.773 743.795 205.508 744.159 205.156C744.524 204.798 744.806 204.354 745.005 203.824L747.272 204.46C747.033 205.229 746.632 205.905 746.069 206.489C745.505 207.065 744.809 207.516 743.98 207.841C743.152 208.159 742.221 208.318 741.186 208.318ZM751.08 208V192.727H753.347V195.034H753.506C753.784 194.278 754.288 193.665 755.017 193.195C755.747 192.724 756.569 192.489 757.483 192.489C757.656 192.489 757.871 192.492 758.13 192.499C758.388 192.505 758.584 192.515 758.716 192.528V194.915C758.637 194.895 758.454 194.865 758.169 194.825C757.891 194.779 757.596 194.756 757.284 194.756C756.542 194.756 755.879 194.911 755.296 195.223C754.719 195.528 754.262 195.952 753.924 196.496C753.592 197.033 753.427 197.646 753.427 198.335V208H751.08ZM761.458 208.159C760.968 208.159 760.547 207.983 760.195 207.632C759.844 207.281 759.668 206.86 759.668 206.369C759.668 205.879 759.844 205.458 760.195 205.107C760.547 204.755 760.968 204.58 761.458 204.58C761.949 204.58 762.37 204.755 762.721 205.107C763.072 205.458 763.248 205.879 763.248 206.369C763.248 206.694 763.165 206.992 762.999 207.264C762.84 207.536 762.625 207.755 762.353 207.92C762.088 208.08 761.79 208.159 761.458 208.159Z" fill="black" fill-opacity="0.5"/>
</svg>
